<svg width="530" height="149" viewBox="0 0 530 149" fill="none" xmlns="http://www.w3.org/2000/svg">
<path d="M148.705 77.3636V89H146.58L141.518 81.6761H141.433V89H138.972V77.3636H141.131L146.154 84.6818H146.256V77.3636H148.705ZM154.67 89.1705C153.772 89.1705 152.999 88.9886 152.352 88.625C151.708 88.2576 151.211 87.7386 150.863 87.0682C150.514 86.3939 150.34 85.5966 150.34 84.6761C150.34 83.7784 150.514 82.9905 150.863 82.3125C151.211 81.6345 151.702 81.1061 152.335 80.7273C152.971 80.3485 153.717 80.1591 154.573 80.1591C155.149 80.1591 155.685 80.2519 156.181 80.4375C156.681 80.6193 157.117 80.8939 157.488 81.2614C157.863 81.6288 158.155 82.0909 158.363 82.6477C158.571 83.2008 158.675 83.8485 158.675 84.5909V85.2557H151.306V83.7557H156.397C156.397 83.4072 156.321 83.0985 156.17 82.8295C156.018 82.5606 155.808 82.3504 155.539 82.1989C155.274 82.0436 154.965 81.9659 154.613 81.9659C154.246 81.9659 153.92 82.0511 153.636 82.2216C153.355 82.3883 153.136 82.6136 152.977 82.8977C152.817 83.178 152.736 83.4905 152.732 83.8352V85.2614C152.732 85.6932 152.812 86.0663 152.971 86.3807C153.134 86.6951 153.363 86.9375 153.658 87.108C153.954 87.2784 154.304 87.3636 154.71 87.3636C154.978 87.3636 155.225 87.3258 155.448 87.25C155.672 87.1742 155.863 87.0606 156.022 86.9091C156.181 86.7576 156.302 86.572 156.386 86.3523L158.624 86.5C158.511 87.0379 158.278 87.5076 157.925 87.9091C157.577 88.3068 157.126 88.6174 156.573 88.8409C156.024 89.0606 155.389 89.1705 154.67 89.1705ZM162.675 83.9545V89H160.255V80.2727H162.562V81.8125H162.664C162.857 81.3049 163.181 80.9034 163.636 80.608C164.09 80.3087 164.641 80.1591 165.289 80.1591C165.895 80.1591 166.424 80.2917 166.874 80.5568C167.325 80.822 167.675 81.2008 167.925 81.6932C168.175 82.1818 168.3 82.7652 168.3 83.4432V89H165.88V83.875C165.884 83.3409 165.747 82.9242 165.471 82.625C165.194 82.322 164.814 82.1705 164.329 82.1705C164.003 82.1705 163.715 82.2405 163.465 82.3807C163.219 82.5208 163.026 82.7254 162.886 82.9943C162.749 83.2595 162.679 83.5795 162.675 83.9545ZM172.629 83.9545V89H170.208V77.3636H172.56V81.8125H172.663C172.86 81.2973 173.178 80.8939 173.617 80.6023C174.057 80.3068 174.608 80.1591 175.271 80.1591C175.877 80.1591 176.405 80.2917 176.856 80.5568C177.31 80.8182 177.663 81.1951 177.913 81.6875C178.166 82.1761 178.291 82.7614 178.288 83.4432V89H175.867V83.875C175.871 83.3371 175.735 82.9186 175.458 82.6193C175.185 82.3201 174.803 82.1705 174.31 82.1705C173.981 82.1705 173.689 82.2405 173.435 82.3807C173.185 82.5208 172.988 82.7254 172.844 82.9943C172.704 83.2595 172.632 83.5795 172.629 83.9545ZM185.789 85.2841V80.2727H188.21V89H185.886V87.4148H185.795C185.598 87.9261 185.27 88.3371 184.812 88.6477C184.357 88.9583 183.802 89.1136 183.147 89.1136C182.564 89.1136 182.05 88.9811 181.607 88.7159C181.164 88.4508 180.817 88.0739 180.567 87.5852C180.321 87.0966 180.196 86.5114 180.192 85.8295V80.2727H182.613V85.3977C182.617 85.9129 182.755 86.3201 183.028 86.6193C183.3 86.9186 183.666 87.0682 184.124 87.0682C184.416 87.0682 184.689 87.0019 184.942 86.8693C185.196 86.733 185.401 86.5322 185.556 86.267C185.715 86.0019 185.793 85.6742 185.789 85.2841ZM190.146 89V80.2727H192.452V81.8125H192.555C192.737 81.3011 193.04 80.8977 193.464 80.6023C193.888 80.3068 194.396 80.1591 194.987 80.1591C195.585 80.1591 196.094 80.3087 196.515 80.608C196.935 80.9034 197.216 81.3049 197.356 81.8125H197.447C197.625 81.3125 197.947 80.9129 198.413 80.6136C198.882 80.3106 199.437 80.1591 200.077 80.1591C200.892 80.1591 201.553 80.4186 202.06 80.9375C202.572 81.4527 202.827 82.1837 202.827 83.1307V89H200.413V83.608C200.413 83.1231 200.284 82.7595 200.026 82.517C199.769 82.2746 199.447 82.1534 199.06 82.1534C198.621 82.1534 198.278 82.2936 198.032 82.5739C197.786 82.8504 197.663 83.2159 197.663 83.6705V89H195.316V83.5568C195.316 83.1288 195.193 82.7879 194.947 82.5341C194.704 82.2803 194.384 82.1534 193.987 82.1534C193.718 82.1534 193.475 82.2216 193.259 82.358C193.047 82.4905 192.879 82.678 192.754 82.9205C192.629 83.1591 192.566 83.4394 192.566 83.7614V89H190.146ZM207.228 89.1648C206.671 89.1648 206.175 89.0682 205.739 88.875C205.304 88.678 204.959 88.3883 204.705 88.0057C204.455 87.6193 204.33 87.1383 204.33 86.5625C204.33 86.0777 204.419 85.6705 204.597 85.3409C204.775 85.0114 205.018 84.7462 205.325 84.5455C205.631 84.3447 205.98 84.1932 206.37 84.0909C206.764 83.9886 207.177 83.9167 207.609 83.875C208.116 83.822 208.525 83.7727 208.836 83.7273C209.147 83.678 209.372 83.6061 209.512 83.5114C209.652 83.4167 209.722 83.2765 209.722 83.0909V83.0568C209.722 82.697 209.609 82.4186 209.381 82.2216C209.158 82.0246 208.84 81.9261 208.427 81.9261C207.991 81.9261 207.645 82.0227 207.387 82.2159C207.129 82.4053 206.959 82.6439 206.876 82.9318L204.637 82.75C204.751 82.2197 204.974 81.7614 205.308 81.375C205.641 80.9848 206.071 80.6856 206.597 80.4773C207.128 80.2652 207.741 80.1591 208.438 80.1591C208.923 80.1591 209.387 80.2159 209.83 80.3295C210.277 80.4432 210.673 80.6193 211.018 80.858C211.366 81.0966 211.641 81.4034 211.842 81.7784C212.042 82.1496 212.143 82.5947 212.143 83.1136V89H209.847V87.7898H209.779C209.639 88.0625 209.451 88.303 209.217 88.5114C208.982 88.7159 208.7 88.8769 208.37 88.9943C208.04 89.108 207.66 89.1648 207.228 89.1648ZM207.921 87.4943C208.277 87.4943 208.592 87.4242 208.864 87.2841C209.137 87.1402 209.351 86.947 209.506 86.7045C209.662 86.4621 209.739 86.1875 209.739 85.8807V84.9545C209.664 85.0038 209.559 85.0492 209.427 85.0909C209.298 85.1288 209.152 85.1648 208.989 85.1989C208.826 85.2292 208.664 85.2576 208.501 85.2841C208.338 85.3068 208.19 85.3277 208.058 85.3466C207.773 85.3883 207.525 85.4545 207.313 85.5455C207.101 85.6364 206.936 85.7595 206.819 85.9148C206.701 86.0663 206.643 86.2557 206.643 86.483C206.643 86.8125 206.762 87.0644 207.001 87.2386C207.243 87.4091 207.55 87.4943 207.921 87.4943ZM217.724 89V80.2727H220.031V81.8125H220.133C220.315 81.3011 220.618 80.8977 221.042 80.6023C221.466 80.3068 221.974 80.1591 222.565 80.1591C223.163 80.1591 223.673 80.3087 224.093 80.608C224.513 80.9034 224.794 81.3049 224.934 81.8125H225.025C225.203 81.3125 225.525 80.9129 225.991 80.6136C226.46 80.3106 227.015 80.1591 227.656 80.1591C228.47 80.1591 229.131 80.4186 229.638 80.9375C230.15 81.4527 230.406 82.1837 230.406 83.1307V89H227.991V83.608C227.991 83.1231 227.862 82.7595 227.604 82.517C227.347 82.2746 227.025 82.1534 226.638 82.1534C226.199 82.1534 225.856 82.2936 225.61 82.5739C225.364 82.8504 225.241 83.2159 225.241 83.6705V89H222.894V83.5568C222.894 83.1288 222.771 82.7879 222.525 82.5341C222.282 82.2803 221.962 82.1534 221.565 82.1534C221.296 82.1534 221.053 82.2216 220.837 82.358C220.625 82.4905 220.457 82.678 220.332 82.9205C220.207 83.1591 220.144 83.4394 220.144 83.7614V89H217.724ZM236.295 89.1705C235.397 89.1705 234.624 88.9886 233.977 88.625C233.333 88.2576 232.836 87.7386 232.488 87.0682C232.139 86.3939 231.965 85.5966 231.965 84.6761C231.965 83.7784 232.139 82.9905 232.488 82.3125C232.836 81.6345 233.327 81.1061 233.96 80.7273C234.596 80.3485 235.342 80.1591 236.198 80.1591C236.774 80.1591 237.31 80.2519 237.806 80.4375C238.306 80.6193 238.742 80.8939 239.113 81.2614C239.488 81.6288 239.78 82.0909 239.988 82.6477C240.196 83.2008 240.3 83.8485 240.3 84.5909V85.2557H232.931V83.7557H238.022C238.022 83.4072 237.946 83.0985 237.795 82.8295C237.643 82.5606 237.433 82.3504 237.164 82.1989C236.899 82.0436 236.59 81.9659 236.238 81.9659C235.871 81.9659 235.545 82.0511 235.261 82.2216C234.98 82.3883 234.761 82.6136 234.602 82.8977C234.442 83.178 234.361 83.4905 234.357 83.8352V85.2614C234.357 85.6932 234.437 86.0663 234.596 86.3807C234.759 86.6951 234.988 86.9375 235.283 87.108C235.579 87.2784 235.929 87.3636 236.335 87.3636C236.603 87.3636 236.85 87.3258 237.073 87.25C237.297 87.1742 237.488 87.0606 237.647 86.9091C237.806 86.7576 237.927 86.572 238.011 86.3523L240.249 86.5C240.136 87.0379 239.903 87.5076 239.55 87.9091C239.202 88.3068 238.751 88.6174 238.198 88.8409C237.649 89.0606 237.014 89.1705 236.295 89.1705ZM244.3 83.9545V89H241.88V80.2727H244.187V81.8125H244.289C244.482 81.3049 244.806 80.9034 245.261 80.608C245.715 80.3087 246.266 80.1591 246.914 80.1591C247.52 80.1591 248.049 80.2917 248.499 80.5568C248.95 80.822 249.3 81.2008 249.55 81.6932C249.8 82.1818 249.925 82.7652 249.925 83.4432V89H247.505V83.875C247.509 83.3409 247.372 82.9242 247.096 82.625C246.819 82.322 246.439 82.1705 245.954 82.1705C245.628 82.1705 245.34 82.2405 245.09 82.3807C244.844 82.5208 244.651 82.7254 244.511 82.9943C244.374 83.2595 244.304 83.5795 244.3 83.9545ZM259.094 82.7614L256.879 82.8977C256.841 82.7083 256.759 82.5379 256.634 82.3864C256.509 82.2311 256.344 82.108 256.14 82.017C255.939 81.9223 255.699 81.875 255.418 81.875C255.043 81.875 254.727 81.9545 254.469 82.1136C254.212 82.2689 254.083 82.4773 254.083 82.7386C254.083 82.947 254.166 83.1231 254.333 83.267C254.5 83.411 254.786 83.5265 255.191 83.6136L256.771 83.9318C257.619 84.1061 258.252 84.3864 258.668 84.7727C259.085 85.1591 259.293 85.6667 259.293 86.2955C259.293 86.8674 259.125 87.3693 258.788 87.8011C258.454 88.233 257.996 88.5701 257.413 88.8125C256.833 89.0511 256.165 89.1705 255.407 89.1705C254.252 89.1705 253.331 88.9299 252.646 88.4489C251.964 87.964 251.564 87.3049 251.447 86.4716L253.827 86.3466C253.899 86.6989 254.074 86.9678 254.35 87.1534C254.627 87.3352 254.981 87.4261 255.413 87.4261C255.837 87.4261 256.178 87.3447 256.435 87.1818C256.697 87.0152 256.829 86.8011 256.833 86.5398C256.829 86.3201 256.737 86.1402 256.555 86C256.373 85.8561 256.093 85.7462 255.714 85.6705L254.202 85.3693C253.35 85.1989 252.716 84.9034 252.299 84.483C251.886 84.0625 251.68 83.5265 251.68 82.875C251.68 82.3144 251.831 81.8314 252.134 81.4261C252.441 81.0208 252.871 80.7083 253.424 80.4886C253.981 80.2689 254.632 80.1591 255.379 80.1591C256.481 80.1591 257.348 80.392 257.981 80.858C258.617 81.3239 258.988 81.9583 259.094 82.7614ZM263.306 89.1648C262.749 89.1648 262.253 89.0682 261.817 88.875C261.382 88.678 261.037 88.3883 260.783 88.0057C260.533 87.6193 260.408 87.1383 260.408 86.5625C260.408 86.0777 260.497 85.6705 260.675 85.3409C260.853 85.0114 261.096 84.7462 261.403 84.5455C261.71 84.3447 262.058 84.1932 262.448 84.0909C262.842 83.9886 263.255 83.9167 263.687 83.875C264.194 83.822 264.603 83.7727 264.914 83.7273C265.225 83.678 265.45 83.6061 265.59 83.5114C265.73 83.4167 265.8 83.2765 265.8 83.0909V83.0568C265.8 82.697 265.687 82.4186 265.46 82.2216C265.236 82.0246 264.918 81.9261 264.505 81.9261C264.069 81.9261 263.723 82.0227 263.465 82.2159C263.208 82.4053 263.037 82.6439 262.954 82.9318L260.715 82.75C260.829 82.2197 261.052 81.7614 261.386 81.375C261.719 80.9848 262.149 80.6856 262.675 80.4773C263.206 80.2652 263.819 80.1591 264.516 80.1591C265.001 80.1591 265.465 80.2159 265.908 80.3295C266.355 80.4432 266.751 80.6193 267.096 80.858C267.444 81.0966 267.719 81.4034 267.92 81.7784C268.121 82.1496 268.221 82.5947 268.221 83.1136V89H265.925V87.7898H265.857C265.717 88.0625 265.53 88.303 265.295 88.5114C265.06 88.7159 264.778 88.8769 264.448 88.9943C264.119 89.108 263.738 89.1648 263.306 89.1648ZM263.999 87.4943C264.355 87.4943 264.67 87.4242 264.942 87.2841C265.215 87.1402 265.429 86.947 265.585 86.7045C265.74 86.4621 265.817 86.1875 265.817 85.8807V84.9545C265.742 85.0038 265.638 85.0492 265.505 85.0909C265.376 85.1288 265.23 85.1648 265.067 85.1989C264.905 85.2292 264.742 85.2576 264.579 85.2841C264.416 85.3068 264.268 85.3277 264.136 85.3466C263.852 85.3883 263.603 85.4545 263.391 85.5455C263.179 85.6364 263.014 85.7595 262.897 85.9148C262.78 86.0663 262.721 86.2557 262.721 86.483C262.721 86.8125 262.84 87.0644 263.079 87.2386C263.321 87.4091 263.628 87.4943 263.999 87.4943ZM274.031 92.4545C273.246 92.4545 272.574 92.3466 272.013 92.1307C271.457 91.9186 271.013 91.6288 270.684 91.2614C270.354 90.8939 270.14 90.4811 270.042 90.0227L272.281 89.7216C272.349 89.8958 272.457 90.0587 272.604 90.2102C272.752 90.3617 272.947 90.483 273.19 90.5739C273.436 90.6686 273.735 90.7159 274.087 90.7159C274.614 90.7159 275.048 90.5871 275.388 90.3295C275.733 90.0758 275.906 89.6496 275.906 89.0511V87.4545H275.803C275.697 87.697 275.538 87.9261 275.326 88.142C275.114 88.358 274.841 88.5341 274.508 88.6705C274.174 88.8068 273.777 88.875 273.315 88.875C272.659 88.875 272.063 88.7235 271.525 88.4205C270.991 88.1136 270.565 87.6458 270.246 87.017C269.932 86.3845 269.775 85.5852 269.775 84.6193C269.775 83.6307 269.936 82.8049 270.258 82.142C270.58 81.4792 271.008 80.983 271.542 80.6534C272.08 80.3239 272.669 80.1591 273.309 80.1591C273.798 80.1591 274.207 80.2424 274.536 80.4091C274.866 80.572 275.131 80.7765 275.332 81.0227C275.536 81.2652 275.693 81.5038 275.803 81.7386H275.894V80.2727H278.298V89.0852C278.298 89.8277 278.116 90.4489 277.752 90.9489C277.388 91.4489 276.885 91.8239 276.241 92.0739C275.601 92.3277 274.864 92.4545 274.031 92.4545ZM274.082 87.0568C274.472 87.0568 274.801 86.9602 275.07 86.767C275.343 86.5701 275.551 86.2898 275.695 85.9261C275.843 85.5587 275.917 85.1193 275.917 84.608C275.917 84.0966 275.845 83.6534 275.701 83.2784C275.557 82.8996 275.349 82.6061 275.076 82.3977C274.803 82.1894 274.472 82.0852 274.082 82.0852C273.684 82.0852 273.349 82.1932 273.076 82.4091C272.803 82.6212 272.597 82.9167 272.457 83.2955C272.317 83.6742 272.246 84.1117 272.246 84.608C272.246 85.1117 272.317 85.5473 272.457 85.9148C272.601 86.2784 272.807 86.5606 273.076 86.7614C273.349 86.9583 273.684 87.0568 274.082 87.0568ZM284.201 89.1705C283.303 89.1705 282.531 88.9886 281.883 88.625C281.239 88.2576 280.743 87.7386 280.394 87.0682C280.046 86.3939 279.871 85.5966 279.871 84.6761C279.871 83.7784 280.046 82.9905 280.394 82.3125C280.743 81.6345 281.233 81.1061 281.866 80.7273C282.502 80.3485 283.248 80.1591 284.104 80.1591C284.68 80.1591 285.216 80.2519 285.712 80.4375C286.212 80.6193 286.648 80.8939 287.019 81.2614C287.394 81.6288 287.686 82.0909 287.894 82.6477C288.103 83.2008 288.207 83.8485 288.207 84.5909V85.2557H280.837V83.7557H285.928C285.928 83.4072 285.853 83.0985 285.701 82.8295C285.549 82.5606 285.339 82.3504 285.07 82.1989C284.805 82.0436 284.496 81.9659 284.144 81.9659C283.777 81.9659 283.451 82.0511 283.167 82.2216C282.887 82.3883 282.667 82.6136 282.508 82.8977C282.349 83.178 282.267 83.4905 282.263 83.8352V85.2614C282.263 85.6932 282.343 86.0663 282.502 86.3807C282.665 86.6951 282.894 86.9375 283.19 87.108C283.485 87.2784 283.835 87.3636 284.241 87.3636C284.51 87.3636 284.756 87.3258 284.979 87.25C285.203 87.1742 285.394 87.0606 285.553 86.9091C285.712 86.7576 285.834 86.572 285.917 86.3523L288.156 86.5C288.042 87.0379 287.809 87.5076 287.457 87.9091C287.108 88.3068 286.657 88.6174 286.104 88.8409C285.555 89.0606 284.921 89.1705 284.201 89.1705ZM289.786 89V80.2727H292.093V81.8125H292.195C292.377 81.3011 292.68 80.8977 293.104 80.6023C293.529 80.3068 294.036 80.1591 294.627 80.1591C295.226 80.1591 295.735 80.3087 296.156 80.608C296.576 80.9034 296.856 81.3049 296.996 81.8125H297.087C297.265 81.3125 297.587 80.9129 298.053 80.6136C298.523 80.3106 299.078 80.1591 299.718 80.1591C300.532 80.1591 301.193 80.4186 301.701 80.9375C302.212 81.4527 302.468 82.1837 302.468 83.1307V89H300.053V83.608C300.053 83.1231 299.924 82.7595 299.667 82.517C299.409 82.2746 299.087 82.1534 298.701 82.1534C298.262 82.1534 297.919 82.2936 297.673 82.5739C297.426 82.8504 297.303 83.2159 297.303 83.6705V89H294.957V83.5568C294.957 83.1288 294.834 82.7879 294.587 82.5341C294.345 82.2803 294.025 82.1534 293.627 82.1534C293.358 82.1534 293.116 82.2216 292.9 82.358C292.688 82.4905 292.519 82.678 292.394 82.9205C292.269 83.1591 292.207 83.4394 292.207 83.7614V89H289.786ZM312.06 89.1705C311.163 89.1705 310.39 88.9886 309.742 88.625C309.098 88.2576 308.602 87.7386 308.254 87.0682C307.905 86.3939 307.731 85.5966 307.731 84.6761C307.731 83.7784 307.905 82.9905 308.254 82.3125C308.602 81.6345 309.093 81.1061 309.725 80.7273C310.362 80.3485 311.108 80.1591 311.964 80.1591C312.54 80.1591 313.076 80.2519 313.572 80.4375C314.072 80.6193 314.507 80.8939 314.879 81.2614C315.254 81.6288 315.545 82.0909 315.754 82.6477C315.962 83.2008 316.066 83.8485 316.066 84.5909V85.2557H308.697V83.7557H313.788C313.788 83.4072 313.712 83.0985 313.56 82.8295C313.409 82.5606 313.199 82.3504 312.93 82.1989C312.665 82.0436 312.356 81.9659 312.004 81.9659C311.636 81.9659 311.31 82.0511 311.026 82.2216C310.746 82.3883 310.526 82.6136 310.367 82.8977C310.208 83.178 310.127 83.4905 310.123 83.8352V85.2614C310.123 85.6932 310.202 86.0663 310.362 86.3807C310.524 86.6951 310.754 86.9375 311.049 87.108C311.344 87.2784 311.695 87.3636 312.1 87.3636C312.369 87.3636 312.615 87.3258 312.839 87.25C313.062 87.1742 313.254 87.0606 313.413 86.9091C313.572 86.7576 313.693 86.572 313.776 86.3523L316.015 86.5C315.901 87.0379 315.668 87.5076 315.316 87.9091C314.968 88.3068 314.517 88.6174 313.964 88.8409C313.415 89.0606 312.78 89.1705 312.06 89.1705ZM320.066 83.9545V89H317.646V80.2727H319.952V81.8125H320.055C320.248 81.3049 320.572 80.9034 321.026 80.608C321.481 80.3087 322.032 80.1591 322.68 80.1591C323.286 80.1591 323.814 80.2917 324.265 80.5568C324.716 80.822 325.066 81.2008 325.316 81.6932C325.566 82.1818 325.691 82.7652 325.691 83.4432V89H323.271V83.875C323.274 83.3409 323.138 82.9242 322.862 82.625C322.585 82.322 322.204 82.1705 321.719 82.1705C321.394 82.1705 321.106 82.2405 320.856 82.3807C320.61 82.5208 320.416 82.7254 320.276 82.9943C320.14 83.2595 320.07 83.5795 320.066 83.9545ZM331.542 89.1705C330.648 89.1705 329.879 88.9811 329.235 88.6023C328.595 88.2197 328.103 87.6894 327.758 87.0114C327.417 86.3333 327.246 85.553 327.246 84.6705C327.246 83.7765 327.419 82.9924 327.763 82.3182C328.112 81.6402 328.606 81.1117 329.246 80.733C329.887 80.3504 330.648 80.1591 331.531 80.1591C332.292 80.1591 332.959 80.2973 333.531 80.5739C334.103 80.8504 334.555 81.2386 334.888 81.7386C335.222 82.2386 335.406 82.8258 335.44 83.5H333.156C333.091 83.0644 332.921 82.714 332.644 82.4489C332.371 82.1799 332.013 82.0455 331.57 82.0455C331.195 82.0455 330.868 82.1477 330.587 82.3523C330.311 82.553 330.095 82.8466 329.94 83.233C329.784 83.6193 329.707 84.0871 329.707 84.6364C329.707 85.1932 329.782 85.6667 329.934 86.0568C330.089 86.447 330.307 86.7443 330.587 86.9489C330.868 87.1534 331.195 87.2557 331.57 87.2557C331.847 87.2557 332.095 87.1989 332.315 87.0852C332.538 86.9716 332.722 86.8068 332.866 86.5909C333.013 86.3712 333.11 86.108 333.156 85.8011H335.44C335.402 86.4678 335.22 87.0549 334.894 87.5625C334.572 88.0663 334.127 88.4602 333.559 88.7443C332.991 89.0284 332.318 89.1705 331.542 89.1705ZM340.933 89.1705C340.05 89.1705 339.287 88.983 338.643 88.608C338.003 88.2292 337.508 87.7027 337.16 87.0284C336.811 86.3504 336.637 85.5644 336.637 84.6705C336.637 83.7689 336.811 82.9811 337.16 82.3068C337.508 81.6288 338.003 81.1023 338.643 80.7273C339.287 80.3485 340.05 80.1591 340.933 80.1591C341.815 80.1591 342.576 80.3485 343.217 80.7273C343.861 81.1023 344.357 81.6288 344.705 82.3068C345.054 82.9811 345.228 83.7689 345.228 84.6705C345.228 85.5644 345.054 86.3504 344.705 87.0284C344.357 87.7027 343.861 88.2292 343.217 88.608C342.576 88.983 341.815 89.1705 340.933 89.1705ZM340.944 87.2955C341.345 87.2955 341.681 87.1818 341.95 86.9545C342.219 86.7235 342.421 86.4091 342.558 86.0114C342.698 85.6136 342.768 85.161 342.768 84.6534C342.768 84.1458 342.698 83.6932 342.558 83.2955C342.421 82.8977 342.219 82.5833 341.95 82.3523C341.681 82.1212 341.345 82.0057 340.944 82.0057C340.539 82.0057 340.198 82.1212 339.921 82.3523C339.648 82.5833 339.442 82.8977 339.302 83.2955C339.165 83.6932 339.097 84.1458 339.097 84.6534C339.097 85.161 339.165 85.6136 339.302 86.0114C339.442 86.4091 339.648 86.7235 339.921 86.9545C340.198 87.1818 340.539 87.2955 340.944 87.2955ZM349.222 83.9545V89H346.802V80.2727H349.109V81.8125H349.211C349.404 81.3049 349.728 80.9034 350.183 80.608C350.637 80.3087 351.188 80.1591 351.836 80.1591C352.442 80.1591 352.97 80.2917 353.421 80.5568C353.872 80.822 354.222 81.2008 354.472 81.6932C354.722 82.1818 354.847 82.7652 354.847 83.4432V89H352.427V83.875C352.431 83.3409 352.294 82.9242 352.018 82.625C351.741 82.322 351.361 82.1705 350.876 82.1705C350.55 82.1705 350.262 82.2405 350.012 82.3807C349.766 82.5208 349.573 82.7254 349.433 82.9943C349.296 83.2595 349.226 83.5795 349.222 83.9545ZM361.397 80.2727V82.0909H356.141V80.2727H361.397ZM357.335 78.1818H359.755V86.3182C359.755 86.5417 359.789 86.7159 359.857 86.8409C359.925 86.9621 360.02 87.0473 360.141 87.0966C360.266 87.1458 360.41 87.1705 360.573 87.1705C360.687 87.1705 360.8 87.161 360.914 87.142C361.028 87.1193 361.115 87.1023 361.175 87.0909L361.556 88.892C361.435 88.9299 361.264 88.9735 361.045 89.0227C360.825 89.0758 360.558 89.108 360.244 89.1193C359.66 89.142 359.149 89.0644 358.71 88.8864C358.274 88.7083 357.935 88.4318 357.692 88.0568C357.45 87.6818 357.331 87.2083 357.335 86.6364V78.1818ZM362.974 89V80.2727H365.32V81.7955H365.411C365.57 81.2538 365.837 80.8447 366.212 80.5682C366.587 80.2879 367.019 80.1477 367.508 80.1477C367.629 80.1477 367.76 80.1553 367.9 80.1705C368.04 80.1856 368.163 80.2064 368.269 80.233V82.3807C368.156 82.3466 367.998 82.3163 367.798 82.2898C367.597 82.2633 367.413 82.25 367.246 82.25C366.89 82.25 366.572 82.3277 366.292 82.483C366.015 82.6345 365.796 82.8466 365.633 83.1193C365.474 83.392 365.394 83.7064 365.394 84.0625V89H362.974ZM371.759 89.1648C371.202 89.1648 370.706 89.0682 370.271 88.875C369.835 88.678 369.49 88.3883 369.237 88.0057C368.987 87.6193 368.862 87.1383 368.862 86.5625C368.862 86.0777 368.951 85.6705 369.129 85.3409C369.307 85.0114 369.549 84.7462 369.856 84.5455C370.163 84.3447 370.511 84.1932 370.901 84.0909C371.295 83.9886 371.708 83.9167 372.14 83.875C372.647 83.822 373.057 83.7727 373.367 83.7273C373.678 83.678 373.903 83.6061 374.043 83.5114C374.183 83.4167 374.254 83.2765 374.254 83.0909V83.0568C374.254 82.697 374.14 82.4186 373.913 82.2216C373.689 82.0246 373.371 81.9261 372.958 81.9261C372.522 81.9261 372.176 82.0227 371.918 82.2159C371.661 82.4053 371.49 82.6439 371.407 82.9318L369.168 82.75C369.282 82.2197 369.505 81.7614 369.839 81.375C370.172 80.9848 370.602 80.6856 371.129 80.4773C371.659 80.2652 372.272 80.1591 372.969 80.1591C373.454 80.1591 373.918 80.2159 374.362 80.3295C374.808 80.4432 375.204 80.6193 375.549 80.858C375.897 81.0966 376.172 81.4034 376.373 81.7784C376.574 82.1496 376.674 82.5947 376.674 83.1136V89H374.379V87.7898H374.31C374.17 88.0625 373.983 88.303 373.748 88.5114C373.513 88.7159 373.231 88.8769 372.901 88.9943C372.572 89.108 372.191 89.1648 371.759 89.1648ZM372.452 87.4943C372.808 87.4943 373.123 87.4242 373.396 87.2841C373.668 87.1402 373.882 86.947 374.038 86.7045C374.193 86.4621 374.271 86.1875 374.271 85.8807V84.9545C374.195 85.0038 374.091 85.0492 373.958 85.0909C373.829 85.1288 373.683 85.1648 373.521 85.1989C373.358 85.2292 373.195 85.2576 373.032 85.2841C372.869 85.3068 372.721 85.3277 372.589 85.3466C372.305 85.3883 372.057 85.4545 371.844 85.5455C371.632 85.6364 371.468 85.7595 371.35 85.9148C371.233 86.0663 371.174 86.2557 371.174 86.483C371.174 86.8125 371.293 87.0644 371.532 87.2386C371.774 87.4091 372.081 87.4943 372.452 87.4943ZM381.768 89.142C381.105 89.142 380.504 88.9716 379.967 88.6307C379.433 88.286 379.008 87.7803 378.694 87.1136C378.383 86.4432 378.228 85.6212 378.228 84.6477C378.228 83.6477 378.389 82.8163 378.711 82.1534C379.033 81.4867 379.461 80.9886 379.995 80.6591C380.533 80.3258 381.122 80.1591 381.762 80.1591C382.251 80.1591 382.658 80.2424 382.984 80.4091C383.313 80.572 383.578 80.7765 383.779 81.0227C383.984 81.2652 384.139 81.5038 384.245 81.7386H384.319V77.3636H386.734V89H384.347V87.6023H384.245C384.131 87.8447 383.97 88.0852 383.762 88.3239C383.558 88.5587 383.29 88.7538 382.961 88.9091C382.635 89.0644 382.237 89.142 381.768 89.142ZM382.535 87.2159C382.925 87.2159 383.254 87.1098 383.523 86.8977C383.796 86.6818 384.004 86.3807 384.148 85.9943C384.296 85.608 384.37 85.1553 384.37 84.6364C384.37 84.1174 384.298 83.6667 384.154 83.2841C384.01 82.9015 383.802 82.6061 383.529 82.3977C383.256 82.1894 382.925 82.0852 382.535 82.0852C382.137 82.0852 381.802 82.1932 381.529 82.4091C381.256 82.625 381.05 82.9242 380.91 83.3068C380.77 83.6894 380.7 84.1326 380.7 84.6364C380.7 85.1439 380.77 85.5928 380.91 85.983C381.054 86.3693 381.26 86.6723 381.529 86.892C381.802 87.108 382.137 87.2159 382.535 87.2159ZM391.212 89.1648C390.656 89.1648 390.159 89.0682 389.724 88.875C389.288 88.678 388.943 88.3883 388.69 88.0057C388.44 87.6193 388.315 87.1383 388.315 86.5625C388.315 86.0777 388.404 85.6705 388.582 85.3409C388.76 85.0114 389.002 84.7462 389.309 84.5455C389.616 84.3447 389.964 84.1932 390.354 84.0909C390.748 83.9886 391.161 83.9167 391.593 83.875C392.101 83.822 392.51 83.7727 392.82 83.7273C393.131 83.678 393.356 83.6061 393.496 83.5114C393.637 83.4167 393.707 83.2765 393.707 83.0909V83.0568C393.707 82.697 393.593 82.4186 393.366 82.2216C393.142 82.0246 392.824 81.9261 392.411 81.9261C391.976 81.9261 391.629 82.0227 391.371 82.2159C391.114 82.4053 390.943 82.6439 390.86 82.9318L388.621 82.75C388.735 82.2197 388.959 81.7614 389.292 81.375C389.625 80.9848 390.055 80.6856 390.582 80.4773C391.112 80.2652 391.726 80.1591 392.423 80.1591C392.907 80.1591 393.371 80.2159 393.815 80.3295C394.262 80.4432 394.657 80.6193 395.002 80.858C395.351 81.0966 395.625 81.4034 395.826 81.7784C396.027 82.1496 396.127 82.5947 396.127 83.1136V89H393.832V87.7898H393.763C393.623 88.0625 393.436 88.303 393.201 88.5114C392.966 88.7159 392.684 88.8769 392.354 88.9943C392.025 89.108 391.644 89.1648 391.212 89.1648ZM391.906 87.4943C392.262 87.4943 392.576 87.4242 392.849 87.2841C393.121 87.1402 393.335 86.947 393.491 86.7045C393.646 86.4621 393.724 86.1875 393.724 85.8807V84.9545C393.648 85.0038 393.544 85.0492 393.411 85.0909C393.282 85.1288 393.137 85.1648 392.974 85.1989C392.811 85.2292 392.648 85.2576 392.485 85.2841C392.322 85.3068 392.174 85.3277 392.042 85.3466C391.758 85.3883 391.51 85.4545 391.298 85.5455C391.085 85.6364 390.921 85.7595 390.803 85.9148C390.686 86.0663 390.627 86.2557 390.627 86.483C390.627 86.8125 390.746 87.0644 390.985 87.2386C391.228 87.4091 391.534 87.4943 391.906 87.4943Z" fill="#764AF1"/>
<path d="M117.831 123H114.689V112.818H117.97C118.958 112.818 119.803 113.022 120.506 113.43C121.208 113.834 121.747 114.416 122.122 115.175C122.496 115.93 122.683 116.835 122.683 117.889C122.683 118.95 122.494 119.863 122.117 120.629C121.739 121.391 121.189 121.978 120.466 122.388C119.743 122.796 118.865 123 117.831 123ZM115.922 121.906H117.752C118.593 121.906 119.291 121.744 119.845 121.419C120.398 121.094 120.811 120.632 121.082 120.032C121.354 119.432 121.49 118.718 121.49 117.889C121.49 117.067 121.356 116.36 121.087 115.766C120.819 115.17 120.418 114.712 119.884 114.394C119.351 114.073 118.686 113.912 117.891 113.912H115.922V121.906ZM124.592 123V115.364H125.766V123H124.592ZM125.189 114.091C124.96 114.091 124.763 114.013 124.597 113.857C124.435 113.701 124.354 113.514 124.354 113.295C124.354 113.077 124.435 112.889 124.597 112.734C124.763 112.578 124.96 112.5 125.189 112.5C125.418 112.5 125.613 112.578 125.776 112.734C125.941 112.889 126.024 113.077 126.024 113.295C126.024 113.514 125.941 113.701 125.776 113.857C125.613 114.013 125.418 114.091 125.189 114.091ZM130.997 126.023C130.43 126.023 129.943 125.95 129.535 125.804C129.128 125.661 128.788 125.473 128.516 125.237C128.248 125.005 128.034 124.757 127.875 124.491L128.81 123.835C128.916 123.974 129.05 124.134 129.212 124.312C129.375 124.495 129.597 124.652 129.878 124.785C130.164 124.921 130.536 124.989 130.997 124.989C131.614 124.989 132.122 124.839 132.523 124.541C132.924 124.243 133.125 123.776 133.125 123.139V121.588H133.025C132.939 121.727 132.817 121.9 132.658 122.105C132.502 122.307 132.276 122.488 131.981 122.647C131.69 122.803 131.295 122.881 130.798 122.881C130.182 122.881 129.628 122.735 129.138 122.443C128.65 122.152 128.264 121.727 127.979 121.17C127.698 120.614 127.557 119.937 127.557 119.142C127.557 118.36 127.694 117.679 127.969 117.099C128.244 116.515 128.627 116.065 129.118 115.746C129.608 115.425 130.175 115.264 130.818 115.264C131.315 115.264 131.71 115.347 132.001 115.513C132.296 115.675 132.522 115.861 132.677 116.07C132.837 116.275 132.959 116.444 133.045 116.577H133.165V115.364H134.298V123.219C134.298 123.875 134.149 124.409 133.851 124.82C133.556 125.234 133.158 125.537 132.658 125.729C132.16 125.925 131.607 126.023 130.997 126.023ZM130.957 121.827C131.428 121.827 131.826 121.719 132.15 121.504C132.475 121.288 132.722 120.978 132.891 120.574C133.06 120.17 133.145 119.686 133.145 119.122C133.145 118.572 133.062 118.086 132.896 117.665C132.73 117.245 132.485 116.915 132.16 116.676C131.836 116.437 131.435 116.318 130.957 116.318C130.46 116.318 130.046 116.444 129.714 116.696C129.386 116.948 129.139 117.286 128.974 117.71C128.811 118.134 128.73 118.605 128.73 119.122C128.73 119.652 128.813 120.121 128.979 120.529C129.148 120.933 129.396 121.252 129.724 121.484C130.056 121.712 130.467 121.827 130.957 121.827ZM136.446 123V115.364H137.619V123H136.446ZM137.043 114.091C136.814 114.091 136.617 114.013 136.451 113.857C136.289 113.701 136.207 113.514 136.207 113.295C136.207 113.077 136.289 112.889 136.451 112.734C136.617 112.578 136.814 112.5 137.043 112.5C137.271 112.5 137.467 112.578 137.629 112.734C137.795 112.889 137.878 113.077 137.878 113.295C137.878 113.514 137.795 113.701 137.629 113.857C137.467 114.013 137.271 114.091 137.043 114.091ZM143.089 115.364V116.358H139.132V115.364H143.089ZM140.285 113.534H141.459V120.812C141.459 121.144 141.507 121.393 141.603 121.558C141.702 121.721 141.828 121.83 141.981 121.886C142.136 121.939 142.3 121.966 142.473 121.966C142.602 121.966 142.708 121.959 142.791 121.946C142.874 121.929 142.94 121.916 142.99 121.906L143.228 122.96C143.149 122.99 143.038 123.02 142.895 123.05C142.753 123.083 142.572 123.099 142.353 123.099C142.022 123.099 141.697 123.028 141.379 122.886C141.064 122.743 140.802 122.526 140.593 122.234C140.388 121.943 140.285 121.575 140.285 121.131V113.534ZM147.974 123.159C147.238 123.159 146.603 122.997 146.07 122.672C145.539 122.344 145.13 121.886 144.842 121.3C144.557 120.71 144.414 120.024 144.414 119.241C144.414 118.459 144.557 117.77 144.842 117.173C145.13 116.573 145.531 116.106 146.045 115.771C146.562 115.433 147.165 115.264 147.854 115.264C148.252 115.264 148.645 115.33 149.033 115.463C149.421 115.596 149.774 115.811 150.092 116.109C150.41 116.404 150.663 116.795 150.852 117.283C151.041 117.77 151.136 118.37 151.136 119.082V119.58H145.249V118.565H149.943C149.943 118.134 149.856 117.75 149.684 117.412C149.515 117.074 149.273 116.807 148.958 116.612C148.647 116.416 148.279 116.318 147.854 116.318C147.387 116.318 146.983 116.434 146.641 116.666C146.303 116.895 146.043 117.193 145.861 117.561C145.679 117.929 145.587 118.323 145.587 118.744V119.42C145.587 119.997 145.687 120.486 145.886 120.887C146.088 121.285 146.368 121.588 146.726 121.797C147.084 122.002 147.5 122.105 147.974 122.105C148.282 122.105 148.56 122.062 148.809 121.976C149.061 121.886 149.278 121.754 149.46 121.578C149.643 121.399 149.783 121.177 149.883 120.912L151.016 121.23C150.897 121.615 150.697 121.953 150.415 122.244C150.133 122.533 149.785 122.758 149.371 122.92C148.957 123.08 148.491 123.159 147.974 123.159ZM161.671 119.878V115.364H162.844V123H161.671V121.707H161.591C161.412 122.095 161.134 122.425 160.756 122.697C160.378 122.965 159.901 123.099 159.324 123.099C158.847 123.099 158.422 122.995 158.051 122.786C157.68 122.574 157.388 122.256 157.176 121.832C156.964 121.404 156.858 120.866 156.858 120.216V115.364H158.031V120.136C158.031 120.693 158.187 121.137 158.499 121.469C158.814 121.8 159.215 121.966 159.702 121.966C159.993 121.966 160.29 121.891 160.592 121.742C160.897 121.593 161.152 121.364 161.357 121.056C161.566 120.748 161.671 120.355 161.671 119.878ZM164.993 123V115.364H166.126V116.557H166.226C166.385 116.149 166.642 115.833 166.996 115.607C167.351 115.379 167.777 115.264 168.274 115.264C168.778 115.264 169.197 115.379 169.532 115.607C169.87 115.833 170.133 116.149 170.322 116.557H170.402C170.597 116.162 170.891 115.849 171.282 115.617C171.673 115.382 172.142 115.264 172.689 115.264C173.372 115.264 173.93 115.478 174.364 115.906C174.798 116.33 175.016 116.991 175.016 117.889V123H173.842V117.889C173.842 117.326 173.688 116.923 173.38 116.681C173.072 116.439 172.709 116.318 172.291 116.318C171.754 116.318 171.338 116.481 171.043 116.805C170.748 117.127 170.601 117.535 170.601 118.028V123H169.408V117.77C169.408 117.336 169.267 116.986 168.985 116.721C168.703 116.452 168.34 116.318 167.896 116.318C167.591 116.318 167.306 116.399 167.041 116.562C166.779 116.724 166.567 116.95 166.405 117.238C166.246 117.523 166.166 117.853 166.166 118.227V123H164.993ZM184.419 115.364V116.358H180.462V115.364H184.419ZM181.615 113.534H182.789V120.812C182.789 121.144 182.837 121.393 182.933 121.558C183.032 121.721 183.158 121.83 183.311 121.886C183.466 121.939 183.63 121.966 183.803 121.966C183.932 121.966 184.038 121.959 184.121 121.946C184.204 121.929 184.27 121.916 184.32 121.906L184.559 122.96C184.479 122.99 184.368 123.02 184.225 123.05C184.083 123.083 183.902 123.099 183.684 123.099C183.352 123.099 183.027 123.028 182.709 122.886C182.394 122.743 182.132 122.526 181.924 122.234C181.718 121.943 181.615 121.575 181.615 121.131V113.534ZM189.304 123.159C188.568 123.159 187.933 122.997 187.4 122.672C186.869 122.344 186.46 121.886 186.172 121.3C185.887 120.71 185.744 120.024 185.744 119.241C185.744 118.459 185.887 117.77 186.172 117.173C186.46 116.573 186.861 116.106 187.375 115.771C187.892 115.433 188.495 115.264 189.185 115.264C189.582 115.264 189.975 115.33 190.363 115.463C190.751 115.596 191.104 115.811 191.422 116.109C191.74 116.404 191.994 116.795 192.182 117.283C192.371 117.77 192.466 118.37 192.466 119.082V119.58H186.579V118.565H191.273C191.273 118.134 191.186 117.75 191.014 117.412C190.845 117.074 190.603 116.807 190.288 116.612C189.977 116.416 189.609 116.318 189.185 116.318C188.717 116.318 188.313 116.434 187.972 116.666C187.633 116.895 187.373 117.193 187.191 117.561C187.009 117.929 186.918 118.323 186.918 118.744V119.42C186.918 119.997 187.017 120.486 187.216 120.887C187.418 121.285 187.698 121.588 188.056 121.797C188.414 122.002 188.83 122.105 189.304 122.105C189.612 122.105 189.891 122.062 190.139 121.976C190.391 121.886 190.608 121.754 190.79 121.578C190.973 121.399 191.114 121.177 191.213 120.912L192.347 121.23C192.227 121.615 192.027 121.953 191.745 122.244C191.463 122.533 191.115 122.758 190.701 122.92C190.287 123.08 189.821 123.159 189.304 123.159ZM194.921 115.364L196.75 118.486L198.58 115.364H199.932L197.466 119.182L199.932 123H198.58L196.75 120.037L194.921 123H193.568L195.994 119.182L193.568 115.364H194.921ZM204.927 115.364V116.358H200.97V115.364H204.927ZM202.123 113.534H203.296V120.812C203.296 121.144 203.344 121.393 203.441 121.558C203.54 121.721 203.666 121.83 203.818 121.886C203.974 121.939 204.138 121.966 204.311 121.966C204.44 121.966 204.546 121.959 204.629 121.946C204.712 121.929 204.778 121.916 204.828 121.906L205.066 122.96C204.987 122.99 204.876 123.02 204.733 123.05C204.591 123.083 204.41 123.099 204.191 123.099C203.86 123.099 203.535 123.028 203.217 122.886C202.902 122.743 202.64 122.526 202.431 122.234C202.226 121.943 202.123 121.575 202.123 121.131V113.534ZM209.712 123.159C209.023 123.159 208.418 122.995 207.898 122.667C207.381 122.339 206.976 121.88 206.685 121.29C206.396 120.7 206.252 120.01 206.252 119.222C206.252 118.426 206.396 117.732 206.685 117.138C206.976 116.545 207.381 116.085 207.898 115.756C208.418 115.428 209.023 115.264 209.712 115.264C210.402 115.264 211.005 115.428 211.522 115.756C212.042 116.085 212.447 116.545 212.735 117.138C213.027 117.732 213.172 118.426 213.172 119.222C213.172 120.01 213.027 120.7 212.735 121.29C212.447 121.88 212.042 122.339 211.522 122.667C211.005 122.995 210.402 123.159 209.712 123.159ZM209.712 122.105C210.236 122.105 210.667 121.971 211.005 121.702C211.343 121.434 211.593 121.081 211.756 120.643C211.918 120.206 211.999 119.732 211.999 119.222C211.999 118.711 211.918 118.236 211.756 117.795C211.593 117.354 211.343 116.998 211.005 116.726C210.667 116.454 210.236 116.318 209.712 116.318C209.189 116.318 208.758 116.454 208.42 116.726C208.082 116.998 207.831 117.354 207.669 117.795C207.507 118.236 207.425 118.711 207.425 119.222C207.425 119.732 207.507 120.206 207.669 120.643C207.831 121.081 208.082 121.434 208.42 121.702C208.758 121.971 209.189 122.105 209.712 122.105ZM224.111 125.864V121.827H224.012C223.926 121.966 223.803 122.142 223.644 122.354C223.485 122.562 223.258 122.75 222.963 122.915C222.668 123.078 222.275 123.159 221.785 123.159C221.148 123.159 220.586 122.998 220.099 122.677C219.612 122.352 219.231 121.895 218.956 121.305C218.681 120.711 218.543 120.01 218.543 119.202C218.543 118.4 218.681 117.704 218.956 117.114C219.231 116.524 219.614 116.068 220.104 115.746C220.595 115.425 221.161 115.264 221.804 115.264C222.302 115.264 222.694 115.347 222.983 115.513C223.274 115.675 223.496 115.861 223.649 116.07C223.805 116.275 223.926 116.444 224.012 116.577H224.151V115.364H225.285V125.864H224.111ZM221.944 122.105C222.414 122.105 222.812 121.982 223.137 121.737C223.462 121.489 223.709 121.146 223.878 120.708C224.047 120.267 224.131 119.759 224.131 119.182C224.131 118.612 224.048 118.113 223.883 117.685C223.717 117.254 223.472 116.92 223.147 116.681C222.822 116.439 222.421 116.318 221.944 116.318C221.446 116.318 221.032 116.446 220.701 116.701C220.373 116.953 220.126 117.296 219.96 117.73C219.798 118.161 219.716 118.645 219.716 119.182C219.716 119.725 219.799 120.219 219.965 120.663C220.134 121.104 220.383 121.455 220.711 121.717C221.042 121.976 221.453 122.105 221.944 122.105ZM232.245 119.878V115.364H233.418V123H232.245V121.707H232.165C231.986 122.095 231.708 122.425 231.33 122.697C230.952 122.965 230.475 123.099 229.898 123.099C229.421 123.099 228.997 122.995 228.625 122.786C228.254 122.574 227.963 122.256 227.75 121.832C227.538 121.404 227.432 120.866 227.432 120.216V115.364H228.606V120.136C228.606 120.693 228.761 121.137 229.073 121.469C229.388 121.8 229.789 121.966 230.276 121.966C230.568 121.966 230.864 121.891 231.166 121.742C231.471 121.593 231.726 121.364 231.932 121.056C232.14 120.748 232.245 120.355 232.245 119.878ZM238.769 123.159C238.033 123.159 237.398 122.997 236.865 122.672C236.334 122.344 235.925 121.886 235.637 121.3C235.352 120.71 235.209 120.024 235.209 119.241C235.209 118.459 235.352 117.77 235.637 117.173C235.925 116.573 236.326 116.106 236.84 115.771C237.357 115.433 237.96 115.264 238.649 115.264C239.047 115.264 239.44 115.33 239.828 115.463C240.215 115.596 240.568 115.811 240.887 116.109C241.205 116.404 241.458 116.795 241.647 117.283C241.836 117.77 241.931 118.37 241.931 119.082V119.58H236.044V118.565H240.737C240.737 118.134 240.651 117.75 240.479 117.412C240.31 117.074 240.068 116.807 239.753 116.612C239.442 116.416 239.074 116.318 238.649 116.318C238.182 116.318 237.778 116.434 237.436 116.666C237.098 116.895 236.838 117.193 236.656 117.561C236.474 117.929 236.382 118.323 236.382 118.744V119.42C236.382 119.997 236.482 120.486 236.681 120.887C236.883 121.285 237.163 121.588 237.521 121.797C237.879 122.002 238.295 122.105 238.769 122.105C239.077 122.105 239.355 122.062 239.604 121.976C239.856 121.886 240.073 121.754 240.255 121.578C240.438 121.399 240.578 121.177 240.678 120.912L241.811 121.23C241.692 121.615 241.492 121.953 241.21 122.244C240.928 122.533 240.58 122.758 240.166 122.92C239.751 123.08 239.286 123.159 238.769 123.159ZM253.897 115.364L251.073 123H249.88L247.056 115.364H248.329L250.437 121.449H250.517L252.625 115.364H253.897ZM258.275 123.159C257.585 123.159 256.98 122.995 256.46 122.667C255.943 122.339 255.539 121.88 255.247 121.29C254.959 120.7 254.815 120.01 254.815 119.222C254.815 118.426 254.959 117.732 255.247 117.138C255.539 116.545 255.943 116.085 256.46 115.756C256.98 115.428 257.585 115.264 258.275 115.264C258.964 115.264 259.567 115.428 260.084 115.756C260.605 116.085 261.009 116.545 261.297 117.138C261.589 117.732 261.735 118.426 261.735 119.222C261.735 120.01 261.589 120.7 261.297 121.29C261.009 121.88 260.605 122.339 260.084 122.667C259.567 122.995 258.964 123.159 258.275 123.159ZM258.275 122.105C258.798 122.105 259.229 121.971 259.567 121.702C259.905 121.434 260.156 121.081 260.318 120.643C260.48 120.206 260.562 119.732 260.562 119.222C260.562 118.711 260.48 118.236 260.318 117.795C260.156 117.354 259.905 116.998 259.567 116.726C259.229 116.454 258.798 116.318 258.275 116.318C257.751 116.318 257.32 116.454 256.982 116.726C256.644 116.998 256.394 117.354 256.231 117.795C256.069 118.236 255.988 118.711 255.988 119.222C255.988 119.732 256.069 120.206 256.231 120.643C256.394 121.081 256.644 121.434 256.982 121.702C257.32 121.971 257.751 122.105 258.275 122.105ZM266.628 123.159C265.912 123.159 265.296 122.99 264.779 122.652C264.262 122.314 263.864 121.848 263.586 121.255C263.307 120.662 263.168 119.984 263.168 119.222C263.168 118.446 263.311 117.762 263.596 117.168C263.884 116.572 264.285 116.106 264.799 115.771C265.316 115.433 265.919 115.264 266.608 115.264C267.145 115.264 267.629 115.364 268.06 115.562C268.491 115.761 268.844 116.04 269.119 116.398C269.394 116.756 269.565 117.173 269.631 117.651H268.458C268.368 117.303 268.169 116.994 267.861 116.726C267.556 116.454 267.145 116.318 266.628 116.318C266.171 116.318 265.77 116.437 265.425 116.676C265.084 116.911 264.817 117.245 264.625 117.675C264.436 118.103 264.341 118.605 264.341 119.182C264.341 119.772 264.434 120.286 264.62 120.723C264.809 121.161 265.074 121.5 265.415 121.742C265.76 121.984 266.164 122.105 266.628 122.105C266.933 122.105 267.21 122.052 267.459 121.946C267.707 121.84 267.918 121.688 268.09 121.489C268.262 121.29 268.385 121.051 268.458 120.773H269.631C269.565 121.223 269.401 121.629 269.139 121.991C268.88 122.349 268.537 122.634 268.11 122.846C267.686 123.055 267.192 123.159 266.628 123.159ZM274.548 123.159C273.812 123.159 273.178 122.997 272.644 122.672C272.114 122.344 271.704 121.886 271.416 121.3C271.131 120.71 270.988 120.024 270.988 119.241C270.988 118.459 271.131 117.77 271.416 117.173C271.704 116.573 272.105 116.106 272.619 115.771C273.136 115.433 273.739 115.264 274.429 115.264C274.826 115.264 275.219 115.33 275.607 115.463C275.995 115.596 276.348 115.811 276.666 116.109C276.984 116.404 277.238 116.795 277.427 117.283C277.616 117.77 277.71 118.37 277.71 119.082V119.58H271.824V118.565H276.517C276.517 118.134 276.431 117.75 276.258 117.412C276.089 117.074 275.847 116.807 275.532 116.612C275.221 116.416 274.853 116.318 274.429 116.318C273.961 116.318 273.557 116.434 273.216 116.666C272.878 116.895 272.617 117.193 272.435 117.561C272.253 117.929 272.162 118.323 272.162 118.744V119.42C272.162 119.997 272.261 120.486 272.46 120.887C272.662 121.285 272.942 121.588 273.3 121.797C273.658 122.002 274.074 122.105 274.548 122.105C274.856 122.105 275.135 122.062 275.383 121.976C275.635 121.886 275.852 121.754 276.035 121.578C276.217 121.399 276.358 121.177 276.457 120.912L277.591 121.23C277.471 121.615 277.271 121.953 276.989 122.244C276.707 122.533 276.359 122.758 275.945 122.92C275.531 123.08 275.065 123.159 274.548 123.159ZM275.403 114.449L274.369 113.057L273.335 114.449H272.221V114.369L273.832 112.301H274.906L276.517 114.369V114.449H275.403ZM286.316 123.159C285.679 123.159 285.118 122.998 284.63 122.677C284.143 122.352 283.762 121.895 283.487 121.305C283.212 120.711 283.074 120.01 283.074 119.202C283.074 118.4 283.212 117.704 283.487 117.114C283.762 116.524 284.145 116.068 284.635 115.746C285.126 115.425 285.693 115.264 286.336 115.264C286.833 115.264 287.226 115.347 287.514 115.513C287.806 115.675 288.028 115.861 288.18 116.07C288.336 116.275 288.457 116.444 288.543 116.577H288.642V112.818H289.816V123H288.682V121.827H288.543C288.457 121.966 288.334 122.142 288.175 122.354C288.016 122.562 287.789 122.75 287.494 122.915C287.199 123.078 286.806 123.159 286.316 123.159ZM286.475 122.105C286.946 122.105 287.343 121.982 287.668 121.737C287.993 121.489 288.24 121.146 288.409 120.708C288.578 120.267 288.662 119.759 288.662 119.182C288.662 118.612 288.58 118.113 288.414 117.685C288.248 117.254 288.003 116.92 287.678 116.681C287.353 116.439 286.952 116.318 286.475 116.318C285.978 116.318 285.563 116.446 285.232 116.701C284.904 116.953 284.657 117.296 284.491 117.73C284.329 118.161 284.248 118.645 284.248 119.182C284.248 119.725 284.33 120.219 284.496 120.663C284.665 121.104 284.914 121.455 285.242 121.717C285.573 121.976 285.984 122.105 286.475 122.105ZM295.329 123.159C294.593 123.159 293.959 122.997 293.425 122.672C292.895 122.344 292.486 121.886 292.197 121.3C291.912 120.71 291.77 120.024 291.77 119.241C291.77 118.459 291.912 117.77 292.197 117.173C292.486 116.573 292.887 116.106 293.4 115.771C293.917 115.433 294.521 115.264 295.21 115.264C295.608 115.264 296 115.33 296.388 115.463C296.776 115.596 297.129 115.811 297.447 116.109C297.765 116.404 298.019 116.795 298.208 117.283C298.397 117.77 298.491 118.37 298.491 119.082V119.58H292.605V118.565H297.298C297.298 118.134 297.212 117.75 297.04 117.412C296.87 117.074 296.629 116.807 296.314 116.612C296.002 116.416 295.634 116.318 295.21 116.318C294.743 116.318 294.338 116.434 293.997 116.666C293.659 116.895 293.399 117.193 293.216 117.561C293.034 117.929 292.943 118.323 292.943 118.744V119.42C292.943 119.997 293.042 120.486 293.241 120.887C293.443 121.285 293.723 121.588 294.081 121.797C294.439 122.002 294.855 122.105 295.329 122.105C295.638 122.105 295.916 122.062 296.165 121.976C296.416 121.886 296.633 121.754 296.816 121.578C296.998 121.399 297.139 121.177 297.238 120.912L298.372 121.23C298.253 121.615 298.052 121.953 297.77 122.244C297.489 122.533 297.141 122.758 296.726 122.92C296.312 123.08 295.846 123.159 295.329 123.159ZM305.685 117.074L304.631 117.372C304.565 117.196 304.467 117.026 304.338 116.86C304.212 116.691 304.04 116.552 303.821 116.442C303.602 116.333 303.322 116.278 302.981 116.278C302.513 116.278 302.124 116.386 301.812 116.602C301.504 116.814 301.35 117.084 301.35 117.412C301.35 117.704 301.456 117.934 301.668 118.103C301.88 118.272 302.212 118.413 302.662 118.526L303.796 118.804C304.479 118.97 304.987 119.223 305.322 119.565C305.657 119.903 305.824 120.339 305.824 120.872C305.824 121.31 305.698 121.701 305.446 122.045C305.198 122.39 304.85 122.662 304.402 122.861C303.955 123.06 303.435 123.159 302.841 123.159C302.062 123.159 301.418 122.99 300.907 122.652C300.397 122.314 300.074 121.82 299.938 121.17L301.052 120.892C301.158 121.303 301.358 121.611 301.653 121.817C301.951 122.022 302.341 122.125 302.821 122.125C303.368 122.125 303.803 122.009 304.124 121.777C304.449 121.542 304.611 121.26 304.611 120.932C304.611 120.667 304.518 120.445 304.333 120.266C304.147 120.083 303.862 119.947 303.478 119.858L302.205 119.56C301.506 119.394 300.992 119.137 300.664 118.789C300.339 118.438 300.177 117.999 300.177 117.472C300.177 117.041 300.298 116.66 300.54 116.328C300.785 115.997 301.118 115.737 301.539 115.548C301.963 115.359 302.444 115.264 302.981 115.264C303.736 115.264 304.33 115.43 304.76 115.761C305.195 116.093 305.503 116.53 305.685 117.074ZM310.792 123.159C310.056 123.159 309.422 122.997 308.888 122.672C308.358 122.344 307.948 121.886 307.66 121.3C307.375 120.71 307.233 120.024 307.233 119.241C307.233 118.459 307.375 117.77 307.66 117.173C307.948 116.573 308.349 116.106 308.863 115.771C309.38 115.433 309.983 115.264 310.673 115.264C311.071 115.264 311.463 115.33 311.851 115.463C312.239 115.596 312.592 115.811 312.91 116.109C313.228 116.404 313.482 116.795 313.671 117.283C313.86 117.77 313.954 118.37 313.954 119.082V119.58H308.068V118.565H312.761C312.761 118.134 312.675 117.75 312.502 117.412C312.333 117.074 312.091 116.807 311.777 116.612C311.465 116.416 311.097 116.318 310.673 116.318C310.206 116.318 309.801 116.434 309.46 116.666C309.122 116.895 308.862 117.193 308.679 117.561C308.497 117.929 308.406 118.323 308.406 118.744V119.42C308.406 119.997 308.505 120.486 308.704 120.887C308.906 121.285 309.186 121.588 309.544 121.797C309.902 122.002 310.318 122.105 310.792 122.105C311.1 122.105 311.379 122.062 311.627 121.976C311.879 121.886 312.096 121.754 312.279 121.578C312.461 121.399 312.602 121.177 312.701 120.912L313.835 121.23C313.715 121.615 313.515 121.953 313.233 122.244C312.951 122.533 312.603 122.758 312.189 122.92C311.775 123.08 311.309 123.159 310.792 123.159ZM315.739 115.364H316.912V123.557C316.912 124.027 316.831 124.435 316.669 124.78C316.509 125.125 316.268 125.391 315.943 125.58C315.621 125.769 315.215 125.864 314.725 125.864C314.685 125.864 314.645 125.864 314.605 125.864C314.566 125.864 314.526 125.864 314.486 125.864V124.77C314.526 124.77 314.562 124.77 314.595 124.77C314.629 124.77 314.665 124.77 314.705 124.77C315.063 124.77 315.325 124.664 315.49 124.452C315.656 124.243 315.739 123.945 315.739 123.557V115.364ZM316.316 114.091C316.087 114.091 315.89 114.013 315.724 113.857C315.562 113.701 315.48 113.514 315.48 113.295C315.48 113.077 315.562 112.889 315.724 112.734C315.89 112.578 316.087 112.5 316.316 112.5C316.544 112.5 316.74 112.578 316.902 112.734C317.068 112.889 317.151 113.077 317.151 113.295C317.151 113.514 317.068 113.701 316.902 113.857C316.74 114.013 316.544 114.091 316.316 114.091ZM321.308 123.179C320.824 123.179 320.385 123.088 319.991 122.906C319.596 122.72 319.283 122.453 319.051 122.105C318.819 121.754 318.703 121.33 318.703 120.832C318.703 120.395 318.789 120.04 318.962 119.768C319.134 119.493 319.364 119.278 319.653 119.122C319.941 118.966 320.259 118.85 320.607 118.774C320.959 118.695 321.312 118.632 321.666 118.585C322.13 118.526 322.506 118.481 322.795 118.451C323.087 118.418 323.299 118.363 323.431 118.287C323.567 118.211 323.635 118.078 323.635 117.889V117.849C323.635 117.359 323.501 116.978 323.232 116.706C322.967 116.434 322.564 116.298 322.024 116.298C321.464 116.298 321.025 116.421 320.707 116.666C320.389 116.911 320.165 117.173 320.036 117.452L318.922 117.054C319.121 116.59 319.386 116.229 319.717 115.97C320.052 115.708 320.417 115.526 320.811 115.423C321.209 115.317 321.6 115.264 321.984 115.264C322.23 115.264 322.511 115.294 322.83 115.354C323.151 115.41 323.461 115.528 323.759 115.707C324.061 115.886 324.311 116.156 324.51 116.517C324.709 116.878 324.808 117.362 324.808 117.969V123H323.635V121.966H323.575C323.496 122.132 323.363 122.309 323.178 122.498C322.992 122.687 322.745 122.848 322.437 122.98C322.129 123.113 321.752 123.179 321.308 123.179ZM321.487 122.125C321.951 122.125 322.342 122.034 322.661 121.852C322.982 121.669 323.224 121.434 323.386 121.146C323.552 120.857 323.635 120.554 323.635 120.236V119.162C323.585 119.222 323.476 119.276 323.307 119.326C323.141 119.372 322.949 119.414 322.73 119.45C322.515 119.483 322.304 119.513 322.099 119.54C321.897 119.563 321.733 119.583 321.607 119.599C321.302 119.639 321.017 119.704 320.752 119.793C320.49 119.879 320.278 120.01 320.115 120.186C319.956 120.358 319.877 120.594 319.877 120.892C319.877 121.3 320.027 121.608 320.329 121.817C320.634 122.022 321.02 122.125 321.487 122.125ZM333.99 123.159C333.274 123.159 332.657 122.99 332.14 122.652C331.623 122.314 331.225 121.848 330.947 121.255C330.669 120.662 330.529 119.984 330.529 119.222C330.529 118.446 330.672 117.762 330.957 117.168C331.245 116.572 331.646 116.106 332.16 115.771C332.677 115.433 333.28 115.264 333.97 115.264C334.507 115.264 334.991 115.364 335.421 115.562C335.852 115.761 336.205 116.04 336.48 116.398C336.755 116.756 336.926 117.173 336.992 117.651H335.819C335.73 117.303 335.531 116.994 335.223 116.726C334.918 116.454 334.507 116.318 333.99 116.318C333.532 116.318 333.131 116.437 332.786 116.676C332.445 116.911 332.178 117.245 331.986 117.675C331.797 118.103 331.703 118.605 331.703 119.182C331.703 119.772 331.795 120.286 331.981 120.723C332.17 121.161 332.435 121.5 332.777 121.742C333.121 121.984 333.526 122.105 333.99 122.105C334.295 122.105 334.571 122.052 334.82 121.946C335.068 121.84 335.279 121.688 335.451 121.489C335.624 121.29 335.746 121.051 335.819 120.773H336.992C336.926 121.223 336.762 121.629 336.5 121.991C336.242 122.349 335.899 122.634 335.471 122.846C335.047 123.055 334.553 123.159 333.99 123.159ZM338.708 123V115.364H339.841V116.517H339.921C340.06 116.139 340.312 115.833 340.676 115.597C341.041 115.362 341.452 115.244 341.909 115.244C341.996 115.244 342.103 115.246 342.233 115.249C342.362 115.253 342.46 115.258 342.526 115.264V116.457C342.486 116.447 342.395 116.433 342.252 116.413C342.113 116.389 341.966 116.378 341.81 116.378C341.439 116.378 341.107 116.456 340.816 116.612C340.527 116.764 340.299 116.976 340.13 117.248C339.964 117.516 339.881 117.823 339.881 118.168V123H338.708ZM343.917 123V115.364H345.09V123H343.917ZM344.513 114.091C344.285 114.091 344.087 114.013 343.922 113.857C343.759 113.701 343.678 113.514 343.678 113.295C343.678 113.077 343.759 112.889 343.922 112.734C344.087 112.578 344.285 112.5 344.513 112.5C344.742 112.5 344.937 112.578 345.1 112.734C345.266 112.889 345.348 113.077 345.348 113.295C345.348 113.514 345.266 113.701 345.1 113.857C344.937 114.013 344.742 114.091 344.513 114.091ZM347.239 125.864V115.364H348.372V116.577H348.512C348.598 116.444 348.717 116.275 348.87 116.07C349.025 115.861 349.247 115.675 349.536 115.513C349.827 115.347 350.222 115.264 350.719 115.264C351.362 115.264 351.929 115.425 352.419 115.746C352.91 116.068 353.293 116.524 353.568 117.114C353.843 117.704 353.98 118.4 353.98 119.202C353.98 120.01 353.843 120.711 353.568 121.305C353.293 121.895 352.911 122.352 352.424 122.677C351.937 122.998 351.375 123.159 350.739 123.159C350.248 123.159 349.856 123.078 349.561 122.915C349.266 122.75 349.039 122.562 348.88 122.354C348.72 122.142 348.598 121.966 348.512 121.827H348.412V125.864H347.239ZM348.392 119.182C348.392 119.759 348.477 120.267 348.646 120.708C348.815 121.146 349.062 121.489 349.387 121.737C349.711 121.982 350.109 122.105 350.58 122.105C351.07 122.105 351.48 121.976 351.808 121.717C352.139 121.455 352.388 121.104 352.554 120.663C352.723 120.219 352.807 119.725 352.807 119.182C352.807 118.645 352.724 118.161 352.559 117.73C352.396 117.296 352.149 116.953 351.818 116.701C351.49 116.446 351.077 116.318 350.58 116.318C350.103 116.318 349.701 116.439 349.377 116.681C349.052 116.92 348.807 117.254 348.641 117.685C348.475 118.113 348.392 118.612 348.392 119.182ZM359.091 115.364V116.358H355.134V115.364H359.091ZM356.287 113.534H357.46V120.812C357.46 121.144 357.509 121.393 357.605 121.558C357.704 121.721 357.83 121.83 357.983 121.886C358.138 121.939 358.302 121.966 358.475 121.966C358.604 121.966 358.71 121.959 358.793 121.946C358.876 121.929 358.942 121.916 358.992 121.906L359.23 122.96C359.151 122.99 359.04 123.02 358.897 123.05C358.755 123.083 358.574 123.099 358.355 123.099C358.024 123.099 357.699 123.028 357.381 122.886C357.066 122.743 356.804 122.526 356.595 122.234C356.39 121.943 356.287 121.575 356.287 121.131V113.534ZM363.876 123.159C363.187 123.159 362.582 122.995 362.062 122.667C361.545 122.339 361.14 121.88 360.849 121.29C360.56 120.7 360.416 120.01 360.416 119.222C360.416 118.426 360.56 117.732 360.849 117.138C361.14 116.545 361.545 116.085 362.062 115.756C362.582 115.428 363.187 115.264 363.876 115.264C364.566 115.264 365.169 115.428 365.686 115.756C366.206 116.085 366.611 116.545 366.899 117.138C367.191 117.732 367.337 118.426 367.337 119.222C367.337 120.01 367.191 120.7 366.899 121.29C366.611 121.88 366.206 122.339 365.686 122.667C365.169 122.995 364.566 123.159 363.876 123.159ZM363.876 122.105C364.4 122.105 364.831 121.971 365.169 121.702C365.507 121.434 365.757 121.081 365.92 120.643C366.082 120.206 366.163 119.732 366.163 119.222C366.163 118.711 366.082 118.236 365.92 117.795C365.757 117.354 365.507 116.998 365.169 116.726C364.831 116.454 364.4 116.318 363.876 116.318C363.353 116.318 362.922 116.454 362.584 116.726C362.246 116.998 361.995 117.354 361.833 117.795C361.671 118.236 361.589 118.711 361.589 119.222C361.589 119.732 361.671 120.206 361.833 120.643C361.995 121.081 362.246 121.434 362.584 121.702C362.922 121.971 363.353 122.105 363.876 122.105ZM372.21 126.023C371.643 126.023 371.156 125.95 370.748 125.804C370.341 125.661 370.001 125.473 369.729 125.237C369.461 125.005 369.247 124.757 369.088 124.491L370.022 123.835C370.129 123.974 370.263 124.134 370.425 124.312C370.588 124.495 370.81 124.652 371.091 124.785C371.376 124.921 371.749 124.989 372.21 124.989C372.826 124.989 373.335 124.839 373.736 124.541C374.137 124.243 374.338 123.776 374.338 123.139V121.588H374.238C374.152 121.727 374.03 121.9 373.87 122.105C373.715 122.307 373.489 122.488 373.194 122.647C372.903 122.803 372.508 122.881 372.011 122.881C371.395 122.881 370.841 122.735 370.351 122.443C369.863 122.152 369.477 121.727 369.192 121.17C368.91 120.614 368.77 119.937 368.77 119.142C368.77 118.36 368.907 117.679 369.182 117.099C369.457 116.515 369.84 116.065 370.331 115.746C370.821 115.425 371.388 115.264 372.031 115.264C372.528 115.264 372.923 115.347 373.214 115.513C373.509 115.675 373.735 115.861 373.89 116.07C374.049 116.275 374.172 116.444 374.258 116.577H374.378V115.364H375.511V123.219C375.511 123.875 375.362 124.409 375.064 124.82C374.769 125.234 374.371 125.537 373.87 125.729C373.373 125.925 372.82 126.023 372.21 126.023ZM372.17 121.827C372.641 121.827 373.039 121.719 373.363 121.504C373.688 121.288 373.935 120.978 374.104 120.574C374.273 120.17 374.358 119.686 374.358 119.122C374.358 118.572 374.275 118.086 374.109 117.665C373.943 117.245 373.698 116.915 373.373 116.676C373.049 116.437 372.647 116.318 372.17 116.318C371.673 116.318 371.259 116.444 370.927 116.696C370.599 116.948 370.352 117.286 370.187 117.71C370.024 118.134 369.943 118.605 369.943 119.122C369.943 119.652 370.026 120.121 370.191 120.529C370.361 120.933 370.609 121.252 370.937 121.484C371.269 121.712 371.68 121.827 372.17 121.827ZM377.659 123V115.364H378.792V116.517H378.872C379.011 116.139 379.263 115.833 379.628 115.597C379.992 115.362 380.403 115.244 380.861 115.244C380.947 115.244 381.054 115.246 381.184 115.249C381.313 115.253 381.411 115.258 381.477 115.264V116.457C381.437 116.447 381.346 116.433 381.204 116.413C381.064 116.389 380.917 116.378 380.761 116.378C380.39 116.378 380.058 116.456 379.767 116.612C379.478 116.764 379.25 116.976 379.081 117.248C378.915 117.516 378.832 117.823 378.832 118.168V123H377.659ZM385.115 123.179C384.631 123.179 384.192 123.088 383.797 122.906C383.403 122.72 383.09 122.453 382.858 122.105C382.626 121.754 382.51 121.33 382.51 120.832C382.51 120.395 382.596 120.04 382.768 119.768C382.941 119.493 383.171 119.278 383.459 119.122C383.748 118.966 384.066 118.85 384.414 118.774C384.765 118.695 385.118 118.632 385.473 118.585C385.937 118.526 386.313 118.481 386.601 118.451C386.893 118.418 387.105 118.363 387.238 118.287C387.374 118.211 387.442 118.078 387.442 117.889V117.849C387.442 117.359 387.307 116.978 387.039 116.706C386.774 116.434 386.371 116.298 385.831 116.298C385.271 116.298 384.832 116.421 384.513 116.666C384.195 116.911 383.972 117.173 383.842 117.452L382.729 117.054C382.927 116.59 383.193 116.229 383.524 115.97C383.859 115.708 384.223 115.526 384.618 115.423C385.016 115.317 385.407 115.264 385.791 115.264C386.036 115.264 386.318 115.294 386.636 115.354C386.958 115.41 387.268 115.528 387.566 115.707C387.868 115.886 388.118 116.156 388.317 116.517C388.516 116.878 388.615 117.362 388.615 117.969V123H387.442V121.966H387.382C387.302 122.132 387.17 122.309 386.984 122.498C386.799 122.687 386.552 122.848 386.244 122.98C385.935 123.113 385.559 123.179 385.115 123.179ZM385.294 122.125C385.758 122.125 386.149 122.034 386.467 121.852C386.789 121.669 387.031 121.434 387.193 121.146C387.359 120.857 387.442 120.554 387.442 120.236V119.162C387.392 119.222 387.283 119.276 387.114 119.326C386.948 119.372 386.756 119.414 386.537 119.45C386.321 119.483 386.111 119.513 385.905 119.54C385.703 119.563 385.539 119.583 385.413 119.599C385.108 119.639 384.823 119.704 384.558 119.793C384.296 119.879 384.084 120.01 383.922 120.186C383.763 120.358 383.683 120.594 383.683 120.892C383.683 121.3 383.834 121.608 384.136 121.817C384.44 122.022 384.827 122.125 385.294 122.125ZM394.157 115.364V116.358H390.041V115.364H394.157ZM391.274 123V114.31C391.274 113.872 391.376 113.508 391.582 113.216C391.787 112.924 392.054 112.705 392.382 112.56C392.71 112.414 393.057 112.341 393.421 112.341C393.71 112.341 393.945 112.364 394.127 112.411C394.31 112.457 394.445 112.5 394.535 112.54L394.197 113.554C394.137 113.534 394.054 113.509 393.948 113.479C393.845 113.45 393.71 113.435 393.541 113.435C393.153 113.435 392.873 113.532 392.7 113.728C392.531 113.924 392.447 114.21 392.447 114.588V123H391.274ZM397.83 123.179C397.346 123.179 396.907 123.088 396.512 122.906C396.118 122.72 395.805 122.453 395.573 122.105C395.341 121.754 395.225 121.33 395.225 120.832C395.225 120.395 395.311 120.04 395.483 119.768C395.656 119.493 395.886 119.278 396.174 119.122C396.463 118.966 396.781 118.85 397.129 118.774C397.48 118.695 397.833 118.632 398.188 118.585C398.652 118.526 399.028 118.481 399.316 118.451C399.608 118.418 399.82 118.363 399.953 118.287C400.089 118.211 400.157 118.078 400.157 117.889V117.849C400.157 117.359 400.022 116.978 399.754 116.706C399.489 116.434 399.086 116.298 398.546 116.298C397.986 116.298 397.546 116.421 397.228 116.666C396.91 116.911 396.686 117.173 396.557 117.452L395.443 117.054C395.642 116.59 395.907 116.229 396.239 115.97C396.574 115.708 396.938 115.526 397.333 115.423C397.73 115.317 398.121 115.264 398.506 115.264C398.751 115.264 399.033 115.294 399.351 115.354C399.673 115.41 399.983 115.528 400.281 115.707C400.582 115.886 400.833 116.156 401.032 116.517C401.23 116.878 401.33 117.362 401.33 117.969V123H400.157V121.966H400.097C400.017 122.132 399.885 122.309 399.699 122.498C399.514 122.687 399.267 122.848 398.958 122.98C398.65 123.113 398.274 123.179 397.83 123.179ZM398.009 122.125C398.473 122.125 398.864 122.034 399.182 121.852C399.504 121.669 399.746 121.434 399.908 121.146C400.074 120.857 400.157 120.554 400.157 120.236V119.162C400.107 119.222 399.997 119.276 399.828 119.326C399.663 119.372 399.47 119.414 399.252 119.45C399.036 119.483 398.826 119.513 398.62 119.54C398.418 119.563 398.254 119.583 398.128 119.599C397.823 119.639 397.538 119.704 397.273 119.793C397.011 119.879 396.799 120.01 396.637 120.186C396.478 120.358 396.398 120.594 396.398 120.892C396.398 121.3 396.549 121.608 396.85 121.817C397.155 122.022 397.541 122.125 398.009 122.125ZM403.471 123V115.364H404.605V116.517H404.684C404.824 116.139 405.075 115.833 405.44 115.597C405.805 115.362 406.216 115.244 406.673 115.244C406.759 115.244 406.867 115.246 406.996 115.249C407.125 115.253 407.223 115.258 407.29 115.264V116.457C407.25 116.447 407.159 116.433 407.016 116.413C406.877 116.389 406.729 116.378 406.574 116.378C406.202 116.378 405.871 116.456 405.579 116.612C405.291 116.764 405.062 116.976 404.893 117.248C404.727 117.516 404.645 117.823 404.645 118.168V123H403.471ZM203.997 144.159C203.308 144.159 202.703 143.995 202.183 143.667C201.666 143.339 201.261 142.88 200.97 142.29C200.681 141.7 200.537 141.01 200.537 140.222C200.537 139.426 200.681 138.732 200.97 138.138C201.261 137.545 201.666 137.085 202.183 136.756C202.703 136.428 203.308 136.264 203.997 136.264C204.687 136.264 205.29 136.428 205.807 136.756C206.327 137.085 206.732 137.545 207.02 138.138C207.312 138.732 207.458 139.426 207.458 140.222C207.458 141.01 207.312 141.7 207.02 142.29C206.732 142.88 206.327 143.339 205.807 143.667C205.29 143.995 204.687 144.159 203.997 144.159ZM203.997 143.105C204.521 143.105 204.952 142.971 205.29 142.702C205.628 142.434 205.878 142.081 206.041 141.643C206.203 141.206 206.284 140.732 206.284 140.222C206.284 139.711 206.203 139.236 206.041 138.795C205.878 138.354 205.628 137.998 205.29 137.726C204.952 137.454 204.521 137.318 203.997 137.318C203.474 137.318 203.043 137.454 202.705 137.726C202.367 137.998 202.117 138.354 201.954 138.795C201.792 139.236 201.71 139.711 201.71 140.222C201.71 140.732 201.792 141.206 201.954 141.643C202.117 142.081 202.367 142.434 202.705 142.702C203.043 142.971 203.474 143.105 203.997 143.105ZM214.061 140.878V136.364H215.234V144H214.061V142.707H213.982C213.803 143.095 213.524 143.425 213.146 143.697C212.769 143.965 212.291 144.099 211.715 144.099C211.237 144.099 210.813 143.995 210.442 143.786C210.071 143.574 209.779 143.256 209.567 142.832C209.355 142.404 209.249 141.866 209.249 141.216V136.364H210.422V141.136C210.422 141.693 210.578 142.137 210.889 142.469C211.204 142.8 211.605 142.966 212.092 142.966C212.384 142.966 212.681 142.891 212.982 142.742C213.287 142.593 213.542 142.364 213.748 142.056C213.957 141.748 214.061 141.355 214.061 140.878ZM224.204 144.159C223.568 144.159 223.006 143.998 222.519 143.677C222.032 143.352 221.651 142.895 221.376 142.305C221.101 141.711 220.963 141.01 220.963 140.202C220.963 139.4 221.101 138.704 221.376 138.114C221.651 137.524 222.034 137.068 222.524 136.746C223.015 136.425 223.581 136.264 224.224 136.264C224.722 136.264 225.114 136.347 225.403 136.513C225.694 136.675 225.916 136.861 226.069 137.07C226.225 137.275 226.346 137.444 226.432 137.577H226.531V133.818H227.704V144H226.571V142.827H226.432C226.346 142.966 226.223 143.142 226.064 143.354C225.905 143.562 225.678 143.75 225.383 143.915C225.088 144.078 224.695 144.159 224.204 144.159ZM224.364 143.105C224.834 143.105 225.232 142.982 225.557 142.737C225.882 142.489 226.128 142.146 226.297 141.708C226.467 141.267 226.551 140.759 226.551 140.182C226.551 139.612 226.468 139.113 226.302 138.685C226.137 138.254 225.891 137.92 225.567 137.681C225.242 137.439 224.841 137.318 224.364 137.318C223.866 137.318 223.452 137.446 223.121 137.701C222.793 137.953 222.546 138.296 222.38 138.73C222.217 139.161 222.136 139.645 222.136 140.182C222.136 140.725 222.219 141.219 222.385 141.663C222.554 142.104 222.802 142.455 223.131 142.717C223.462 142.976 223.873 143.105 224.364 143.105ZM233.218 144.159C232.482 144.159 231.847 143.997 231.314 143.672C230.784 143.344 230.374 142.886 230.086 142.3C229.801 141.71 229.658 141.024 229.658 140.241C229.658 139.459 229.801 138.77 230.086 138.173C230.374 137.573 230.775 137.106 231.289 136.771C231.806 136.433 232.409 136.264 233.099 136.264C233.496 136.264 233.889 136.33 234.277 136.463C234.665 136.596 235.018 136.811 235.336 137.109C235.654 137.404 235.908 137.795 236.097 138.283C236.285 138.77 236.38 139.37 236.38 140.082V140.58H230.494V139.565H235.187C235.187 139.134 235.101 138.75 234.928 138.412C234.759 138.074 234.517 137.807 234.202 137.612C233.891 137.416 233.523 137.318 233.099 137.318C232.631 137.318 232.227 137.434 231.886 137.666C231.547 137.895 231.287 138.193 231.105 138.561C230.923 138.929 230.832 139.323 230.832 139.744V140.42C230.832 140.997 230.931 141.486 231.13 141.887C231.332 142.285 231.612 142.588 231.97 142.797C232.328 143.002 232.744 143.105 233.218 143.105C233.526 143.105 233.805 143.062 234.053 142.976C234.305 142.886 234.522 142.754 234.704 142.578C234.887 142.399 235.028 142.177 235.127 141.912L236.261 142.23C236.141 142.615 235.941 142.953 235.659 143.244C235.377 143.533 235.029 143.758 234.615 143.92C234.201 144.08 233.735 144.159 233.218 144.159ZM243.574 138.074L242.52 138.372C242.454 138.196 242.356 138.026 242.226 137.86C242.101 137.691 241.928 137.552 241.709 137.442C241.491 137.333 241.211 137.278 240.869 137.278C240.402 137.278 240.012 137.386 239.701 137.602C239.393 137.814 239.239 138.084 239.239 138.412C239.239 138.704 239.345 138.934 239.557 139.103C239.769 139.272 240.1 139.413 240.551 139.526L241.685 139.804C242.367 139.97 242.876 140.223 243.211 140.565C243.546 140.903 243.713 141.339 243.713 141.872C243.713 142.31 243.587 142.701 243.335 143.045C243.087 143.39 242.739 143.662 242.291 143.861C241.844 144.06 241.323 144.159 240.73 144.159C239.951 144.159 239.306 143.99 238.796 143.652C238.286 143.314 237.963 142.82 237.827 142.17L238.94 141.892C239.046 142.303 239.247 142.611 239.542 142.817C239.84 143.022 240.23 143.125 240.71 143.125C241.257 143.125 241.691 143.009 242.013 142.777C242.338 142.542 242.5 142.26 242.5 141.932C242.5 141.667 242.407 141.445 242.222 141.266C242.036 141.083 241.751 140.947 241.366 140.858L240.094 140.56C239.394 140.394 238.881 140.137 238.552 139.789C238.228 139.438 238.065 138.999 238.065 138.472C238.065 138.041 238.186 137.66 238.428 137.328C238.673 136.997 239.007 136.737 239.427 136.548C239.852 136.359 240.332 136.264 240.869 136.264C241.625 136.264 242.218 136.43 242.649 136.761C243.083 137.093 243.391 137.53 243.574 138.074ZM248.581 144.159C247.866 144.159 247.249 143.99 246.732 143.652C246.215 143.314 245.817 142.848 245.539 142.255C245.26 141.662 245.121 140.984 245.121 140.222C245.121 139.446 245.264 138.762 245.549 138.168C245.837 137.572 246.238 137.106 246.752 136.771C247.269 136.433 247.872 136.264 248.562 136.264C249.098 136.264 249.582 136.364 250.013 136.562C250.444 136.761 250.797 137.04 251.072 137.398C251.347 137.756 251.518 138.173 251.584 138.651H250.411C250.321 138.303 250.123 137.994 249.814 137.726C249.509 137.454 249.098 137.318 248.581 137.318C248.124 137.318 247.723 137.437 247.378 137.676C247.037 137.911 246.77 138.245 246.578 138.675C246.389 139.103 246.294 139.605 246.294 140.182C246.294 140.772 246.387 141.286 246.573 141.723C246.762 142.161 247.027 142.5 247.368 142.742C247.713 142.984 248.117 143.105 248.581 143.105C248.886 143.105 249.163 143.052 249.412 142.946C249.66 142.84 249.871 142.688 250.043 142.489C250.215 142.29 250.338 142.051 250.411 141.773H251.584C251.518 142.223 251.354 142.629 251.092 142.991C250.834 143.349 250.491 143.634 250.063 143.846C249.639 144.055 249.145 144.159 248.581 144.159ZM253.299 144V136.364H254.433V137.517H254.513C254.652 137.139 254.904 136.833 255.268 136.597C255.633 136.362 256.044 136.244 256.501 136.244C256.587 136.244 256.695 136.246 256.824 136.249C256.954 136.253 257.051 136.258 257.118 136.264V137.457C257.078 137.447 256.987 137.433 256.844 137.413C256.705 137.389 256.557 137.378 256.402 137.378C256.031 137.378 255.699 137.456 255.407 137.612C255.119 137.764 254.89 137.976 254.721 138.248C254.556 138.516 254.473 138.823 254.473 139.168V144H253.299ZM258.508 144V136.364H259.682V144H258.508ZM259.105 135.091C258.876 135.091 258.679 135.013 258.513 134.857C258.351 134.701 258.27 134.514 258.27 134.295C258.27 134.077 258.351 133.889 258.513 133.734C258.679 133.578 258.876 133.5 259.105 133.5C259.334 133.5 259.529 133.578 259.692 133.734C259.857 133.889 259.94 134.077 259.94 134.295C259.94 134.514 259.857 134.701 259.692 134.857C259.529 135.013 259.334 135.091 259.105 135.091ZM261.831 146.864V136.364H262.964V137.577H263.103C263.19 137.444 263.309 137.275 263.461 137.07C263.617 136.861 263.839 136.675 264.128 136.513C264.419 136.347 264.814 136.264 265.311 136.264C265.954 136.264 266.521 136.425 267.011 136.746C267.502 137.068 267.884 137.524 268.16 138.114C268.435 138.704 268.572 139.4 268.572 140.202C268.572 141.01 268.435 141.711 268.16 142.305C267.884 142.895 267.503 143.352 267.016 143.677C266.529 143.998 265.967 144.159 265.331 144.159C264.84 144.159 264.447 144.078 264.152 143.915C263.857 143.75 263.63 143.562 263.471 143.354C263.312 143.142 263.19 142.966 263.103 142.827H263.004V146.864H261.831ZM262.984 140.182C262.984 140.759 263.069 141.267 263.238 141.708C263.407 142.146 263.654 142.489 263.978 142.737C264.303 142.982 264.701 143.105 265.172 143.105C265.662 143.105 266.071 142.976 266.4 142.717C266.731 142.455 266.98 142.104 267.145 141.663C267.314 141.219 267.399 140.725 267.399 140.182C267.399 139.645 267.316 139.161 267.15 138.73C266.988 138.296 266.741 137.953 266.41 137.701C266.081 137.446 265.669 137.318 265.172 137.318C264.694 137.318 264.293 137.439 263.968 137.681C263.644 137.92 263.398 138.254 263.233 138.685C263.067 139.113 262.984 139.612 262.984 140.182ZM273.683 136.364V137.358H269.726V136.364H273.683ZM270.879 134.534H272.052V141.812C272.052 142.144 272.1 142.393 272.196 142.558C272.296 142.721 272.422 142.83 272.574 142.886C272.73 142.939 272.894 142.966 273.066 142.966C273.196 142.966 273.302 142.959 273.385 142.946C273.468 142.929 273.534 142.916 273.584 142.906L273.822 143.96C273.743 143.99 273.632 144.02 273.489 144.05C273.347 144.083 273.166 144.099 272.947 144.099C272.616 144.099 272.291 144.028 271.973 143.886C271.658 143.743 271.396 143.526 271.187 143.234C270.982 142.943 270.879 142.575 270.879 142.131V134.534ZM278.468 144.159C277.779 144.159 277.174 143.995 276.653 143.667C276.136 143.339 275.732 142.88 275.44 142.29C275.152 141.7 275.008 141.01 275.008 140.222C275.008 139.426 275.152 138.732 275.44 138.138C275.732 137.545 276.136 137.085 276.653 136.756C277.174 136.428 277.779 136.264 278.468 136.264C279.158 136.264 279.761 136.428 280.278 136.756C280.798 137.085 281.203 137.545 281.491 138.138C281.783 138.732 281.928 139.426 281.928 140.222C281.928 141.01 281.783 141.7 281.491 142.29C281.203 142.88 280.798 143.339 280.278 143.667C279.761 143.995 279.158 144.159 278.468 144.159ZM278.468 143.105C278.992 143.105 279.423 142.971 279.761 142.702C280.099 142.434 280.349 142.081 280.511 141.643C280.674 141.206 280.755 140.732 280.755 140.222C280.755 139.711 280.674 139.236 280.511 138.795C280.349 138.354 280.099 137.998 279.761 137.726C279.423 137.454 278.992 137.318 278.468 137.318C277.944 137.318 277.514 137.454 277.176 137.726C276.837 137.998 276.587 138.354 276.425 138.795C276.262 139.236 276.181 139.711 276.181 140.222C276.181 140.732 276.262 141.206 276.425 141.643C276.587 142.081 276.837 142.434 277.176 142.702C277.514 142.971 277.944 143.105 278.468 143.105ZM286.802 147.023C286.235 147.023 285.748 146.95 285.34 146.804C284.932 146.661 284.593 146.473 284.321 146.237C284.052 146.005 283.839 145.757 283.68 145.491L284.614 144.835C284.72 144.974 284.855 145.134 285.017 145.312C285.179 145.495 285.401 145.652 285.683 145.785C285.968 145.921 286.341 145.989 286.802 145.989C287.418 145.989 287.927 145.839 288.328 145.541C288.729 145.243 288.93 144.776 288.93 144.139V142.588H288.83C288.744 142.727 288.621 142.9 288.462 143.105C288.306 143.307 288.081 143.488 287.786 143.647C287.494 143.803 287.1 143.881 286.603 143.881C285.986 143.881 285.433 143.735 284.942 143.443C284.455 143.152 284.069 142.727 283.784 142.17C283.502 141.614 283.361 140.937 283.361 140.142C283.361 139.36 283.499 138.679 283.774 138.099C284.049 137.515 284.432 137.065 284.922 136.746C285.413 136.425 285.98 136.264 286.623 136.264C287.12 136.264 287.514 136.347 287.806 136.513C288.101 136.675 288.326 136.861 288.482 137.07C288.641 137.275 288.764 137.444 288.85 137.577H288.969V136.364H290.103V144.219C290.103 144.875 289.954 145.409 289.655 145.82C289.36 146.234 288.963 146.537 288.462 146.729C287.965 146.925 287.412 147.023 286.802 147.023ZM286.762 142.827C287.233 142.827 287.63 142.719 287.955 142.504C288.28 142.288 288.527 141.978 288.696 141.574C288.865 141.17 288.949 140.686 288.949 140.122C288.949 139.572 288.867 139.086 288.701 138.665C288.535 138.245 288.29 137.915 287.965 137.676C287.64 137.437 287.239 137.318 286.762 137.318C286.265 137.318 285.851 137.444 285.519 137.696C285.191 137.948 284.944 138.286 284.778 138.71C284.616 139.134 284.535 139.605 284.535 140.122C284.535 140.652 284.618 141.121 284.783 141.529C284.952 141.933 285.201 142.252 285.529 142.484C285.86 142.712 286.271 142.827 286.762 142.827ZM292.251 144V136.364H293.384V137.517H293.464C293.603 137.139 293.855 136.833 294.219 136.597C294.584 136.362 294.995 136.244 295.452 136.244C295.539 136.244 295.646 136.246 295.775 136.249C295.905 136.253 296.003 136.258 296.069 136.264V137.457C296.029 137.447 295.938 137.433 295.795 137.413C295.656 137.389 295.509 137.378 295.353 137.378C294.982 137.378 294.65 137.456 294.359 137.612C294.07 137.764 293.842 137.976 293.672 138.248C293.507 138.516 293.424 138.823 293.424 139.168V144H292.251ZM299.707 144.179C299.223 144.179 298.784 144.088 298.389 143.906C297.995 143.72 297.682 143.453 297.45 143.105C297.218 142.754 297.102 142.33 297.102 141.832C297.102 141.395 297.188 141.04 297.36 140.768C297.533 140.493 297.763 140.278 298.051 140.122C298.34 139.966 298.658 139.85 299.006 139.774C299.357 139.695 299.71 139.632 300.065 139.585C300.529 139.526 300.905 139.481 301.193 139.451C301.485 139.418 301.697 139.363 301.83 139.287C301.966 139.211 302.033 139.078 302.033 138.889V138.849C302.033 138.359 301.899 137.978 301.631 137.706C301.366 137.434 300.963 137.298 300.423 137.298C299.863 137.298 299.423 137.421 299.105 137.666C298.787 137.911 298.563 138.173 298.434 138.452L297.32 138.054C297.519 137.59 297.784 137.229 298.116 136.97C298.451 136.708 298.815 136.526 299.21 136.423C299.607 136.317 299.998 136.264 300.383 136.264C300.628 136.264 300.91 136.294 301.228 136.354C301.55 136.41 301.859 136.528 302.158 136.707C302.459 136.886 302.71 137.156 302.908 137.517C303.107 137.878 303.207 138.362 303.207 138.969V144H302.033V142.966H301.974C301.894 143.132 301.762 143.309 301.576 143.498C301.39 143.687 301.144 143.848 300.835 143.98C300.527 144.113 300.151 144.179 299.707 144.179ZM299.886 143.125C300.35 143.125 300.741 143.034 301.059 142.852C301.381 142.669 301.622 142.434 301.785 142.146C301.951 141.857 302.033 141.554 302.033 141.236V140.162C301.984 140.222 301.874 140.276 301.705 140.326C301.54 140.372 301.347 140.414 301.129 140.45C300.913 140.483 300.703 140.513 300.497 140.54C300.295 140.563 300.131 140.583 300.005 140.599C299.7 140.639 299.415 140.704 299.15 140.793C298.888 140.879 298.676 141.01 298.514 141.186C298.354 141.358 298.275 141.594 298.275 141.892C298.275 142.3 298.426 142.608 298.727 142.817C299.032 143.022 299.418 143.125 299.886 143.125ZM308.749 136.364V137.358H304.632V136.364H308.749ZM305.865 144V135.31C305.865 134.872 305.968 134.508 306.174 134.216C306.379 133.924 306.646 133.705 306.974 133.56C307.302 133.414 307.648 133.341 308.013 133.341C308.301 133.341 308.537 133.364 308.719 133.411C308.901 133.457 309.037 133.5 309.127 133.54L308.789 134.554C308.729 134.534 308.646 134.509 308.54 134.479C308.437 134.45 308.301 134.435 308.132 134.435C307.745 134.435 307.465 134.532 307.292 134.728C307.123 134.924 307.039 135.21 307.039 135.588V144H305.865ZM312.422 144.179C311.938 144.179 311.499 144.088 311.104 143.906C310.71 143.72 310.397 143.453 310.165 143.105C309.932 142.754 309.816 142.33 309.816 141.832C309.816 141.395 309.903 141.04 310.075 140.768C310.247 140.493 310.478 140.278 310.766 140.122C311.054 139.966 311.373 139.85 311.721 139.774C312.072 139.695 312.425 139.632 312.78 139.585C313.244 139.526 313.62 139.481 313.908 139.451C314.2 139.418 314.412 139.363 314.544 139.287C314.68 139.211 314.748 139.078 314.748 138.889V138.849C314.748 138.359 314.614 137.978 314.346 137.706C314.08 137.434 313.678 137.298 313.138 137.298C312.577 137.298 312.138 137.421 311.82 137.666C311.502 137.911 311.278 138.173 311.149 138.452L310.035 138.054C310.234 137.59 310.499 137.229 310.831 136.97C311.165 136.708 311.53 136.526 311.924 136.423C312.322 136.317 312.713 136.264 313.098 136.264C313.343 136.264 313.625 136.294 313.943 136.354C314.264 136.41 314.574 136.528 314.873 136.707C315.174 136.886 315.424 137.156 315.623 137.517C315.822 137.878 315.922 138.362 315.922 138.969V144H314.748V142.966H314.689C314.609 143.132 314.477 143.309 314.291 143.498C314.105 143.687 313.858 143.848 313.55 143.98C313.242 144.113 312.866 144.179 312.422 144.179ZM312.601 143.125C313.065 143.125 313.456 143.034 313.774 142.852C314.095 142.669 314.337 142.434 314.5 142.146C314.665 141.857 314.748 141.554 314.748 141.236V140.162C314.699 140.222 314.589 140.276 314.42 140.326C314.254 140.372 314.062 140.414 313.843 140.45C313.628 140.483 313.418 140.513 313.212 140.54C313.01 140.563 312.846 140.583 312.72 140.599C312.415 140.639 312.13 140.704 311.865 140.793C311.603 140.879 311.391 141.01 311.228 141.186C311.069 141.358 310.99 141.594 310.99 141.892C310.99 142.3 311.141 142.608 311.442 142.817C311.747 143.022 312.133 143.125 312.601 143.125ZM318.063 144V136.364H319.197V137.517H319.276C319.415 137.139 319.667 136.833 320.032 136.597C320.396 136.362 320.807 136.244 321.265 136.244C321.351 136.244 321.459 136.246 321.588 136.249C321.717 136.253 321.815 136.258 321.881 136.264V137.457C321.842 137.447 321.75 137.433 321.608 137.413C321.469 137.389 321.321 137.378 321.165 137.378C320.794 137.378 320.463 137.456 320.171 137.612C319.883 137.764 319.654 137.976 319.485 138.248C319.319 138.516 319.236 138.823 319.236 139.168V144H318.063ZM323.252 144.08C323.007 144.08 322.796 143.992 322.621 143.816C322.445 143.64 322.357 143.43 322.357 143.185C322.357 142.939 322.445 142.729 322.621 142.553C322.796 142.378 323.007 142.29 323.252 142.29C323.497 142.29 323.708 142.378 323.884 142.553C324.059 142.729 324.147 142.939 324.147 143.185C324.147 143.347 324.106 143.496 324.023 143.632C323.943 143.768 323.836 143.877 323.7 143.96C323.567 144.04 323.418 144.08 323.252 144.08Z" fill="#9772FB"/>
<path fill-rule="evenodd" clip-rule="evenodd" d="M277.159 39.1591C278.624 37.6946 280.998 37.6946 282.462 39.1591L296.902 53.5984C298.366 55.0628 298.366 57.4372 296.902 58.9016C295.437 60.3661 293.063 60.3661 291.598 58.9016L277.159 44.4624C275.695 42.9979 275.695 40.6236 277.159 39.1591Z" fill="#764AF1"/>
<path fill-rule="evenodd" clip-rule="evenodd" d="M262.375 45C273.766 45 283 35.7659 283 24.375C283 12.9841 273.766 3.75 262.375 3.75C250.984 3.75 241.75 12.9841 241.75 24.375C241.75 35.7659 250.984 45 262.375 45ZM286.75 24.375C286.75 37.8369 275.837 48.75 262.375 48.75C248.913 48.75 238 37.8369 238 24.375C238 10.9131 248.913 0 262.375 0C275.837 0 286.75 10.9131 286.75 24.375Z" fill="#764AF1"/>
</svg>
