<svg width="208" height="30" viewBox="0 0 208 30" fill="none" xmlns="http://www.w3.org/2000/svg">
<path d="M18.5147 0C15.4686 0 12.5473 1.21005 10.3934 3.36396L3.36396 10.3934C1.21005 12.5473 0 15.4686 0 18.5147C0 24.8579 5.14214 30 11.4853 30C14.5314 30 17.4527 28.7899 19.6066 26.636L24.4689 21.7737C24.469 21.7738 24.4689 21.7736 24.4689 21.7737L38.636 7.6066C39.6647 6.57791 41.0599 6 42.5147 6C44.9503 6 47.0152 7.58741 47.7311 9.78407L52.2022 5.31296C50.1625 2.11834 46.586 0 42.5147 0C39.4686 0 36.5473 1.21005 34.3934 3.36396L15.364 22.3934C14.3353 23.4221 12.9401 24 11.4853 24C8.45584 24 6 21.5442 6 18.5147C6 17.0599 6.57791 15.6647 7.6066 14.636L14.636 7.6066C15.6647 6.57791 17.0599 6 18.5147 6C20.9504 6 23.0152 7.58748 23.7311 9.78421L28.2023 5.31307C26.1626 2.1184 22.5861 0 18.5147 0Z" fill="#764AF1"/>
<path d="M39.364 22.3934C38.3353 23.4221 36.9401 24 35.4853 24C33.05 24 30.9853 22.413 30.2692 20.2167L25.7982 24.6877C27.838 27.8819 31.4143 30 35.4853 30C38.5314 30 41.4527 28.7899 43.6066 26.636L62.636 7.6066C63.6647 6.57791 65.0599 6 66.5147 6C69.5442 6 72 8.45584 72 11.4853C72 12.9401 71.4221 14.3353 70.3934 15.364L63.364 22.3934C62.3353 23.4221 60.9401 24 59.4853 24C57.0498 24 54.985 22.4127 54.269 20.2162L49.798 24.6873C51.8377 27.8818 55.4141 30 59.4853 30C62.5314 30 65.4527 28.7899 67.6066 26.636L74.636 19.6066C76.7899 17.4527 78 14.5314 78 11.4853C78 5.14214 72.8579 0 66.5147 0C63.4686 0 60.5473 1.21005 58.3934 3.36396L39.364 22.3934Z" fill="#764AF1"/>
<path d="M97.7727 24H91.321V6.54545H97.7642C99.5426 6.54545 101.074 6.89489 102.358 7.59375C103.648 8.28693 104.642 9.28693 105.341 10.5938C106.04 11.8949 106.389 13.4517 106.389 15.2642C106.389 17.0824 106.04 18.6449 105.341 19.9517C104.648 21.2585 103.656 22.2614 102.366 22.9602C101.077 23.6534 99.5455 24 97.7727 24ZM95.5398 20.4034H97.6108C98.5881 20.4034 99.4148 20.2386 100.091 19.9091C100.773 19.5739 101.287 19.0312 101.634 18.2812C101.986 17.5256 102.162 16.5199 102.162 15.2642C102.162 14.0085 101.986 13.0085 101.634 12.2642C101.281 11.5142 100.761 10.9744 100.074 10.6449C99.392 10.3097 98.5511 10.142 97.5511 10.142H95.5398V20.4034ZM108.852 24V6.54545H121.023V9.97159H113.071V13.5511H120.401V16.9858H113.071V20.5739H121.023V24H108.852ZM139.509 12.8693H135.247C135.19 12.4318 135.074 12.0369 134.898 11.6847C134.722 11.3324 134.489 11.0312 134.199 10.7812C133.909 10.5312 133.565 10.3409 133.168 10.2102C132.776 10.0739 132.341 10.0057 131.864 10.0057C131.017 10.0057 130.287 10.2131 129.673 10.6278C129.065 11.0426 128.597 11.642 128.267 12.4261C127.943 13.2102 127.781 14.1591 127.781 15.2727C127.781 16.4318 127.946 17.4034 128.276 18.1875C128.611 18.9659 129.08 19.554 129.682 19.9517C130.29 20.3437 131.009 20.5398 131.838 20.5398C132.304 20.5398 132.727 20.4801 133.108 20.3608C133.494 20.2415 133.832 20.0682 134.122 19.8409C134.418 19.608 134.659 19.3267 134.847 18.9972C135.04 18.6619 135.173 18.2841 135.247 17.8636L139.509 17.8892C139.435 18.6619 139.21 19.4233 138.835 20.1733C138.466 20.9233 137.957 21.608 137.31 22.2273C136.662 22.8409 135.872 23.3295 134.94 23.6932C134.014 24.0568 132.952 24.2386 131.753 24.2386C130.173 24.2386 128.759 23.892 127.509 23.1989C126.264 22.5 125.281 21.483 124.56 20.1477C123.838 18.8125 123.477 17.1875 123.477 15.2727C123.477 13.3523 123.844 11.7244 124.577 10.3892C125.31 9.05398 126.301 8.03977 127.551 7.34659C128.801 6.65341 130.202 6.30682 131.753 6.30682C132.81 6.30682 133.787 6.45455 134.685 6.75C135.582 7.03977 136.372 7.46591 137.054 8.02841C137.736 8.58523 138.29 9.26989 138.716 10.0824C139.142 10.8949 139.406 11.8239 139.509 12.8693ZM158.397 15.2727C158.397 17.1932 158.028 18.821 157.289 20.1562C156.55 21.4915 155.55 22.5057 154.289 23.1989C153.033 23.892 151.624 24.2386 150.062 24.2386C148.494 24.2386 147.082 23.8892 145.826 23.1903C144.57 22.4915 143.573 21.4773 142.835 20.1477C142.102 18.8125 141.735 17.1875 141.735 15.2727C141.735 13.3523 142.102 11.7244 142.835 10.3892C143.573 9.05398 144.57 8.03977 145.826 7.34659C147.082 6.65341 148.494 6.30682 150.062 6.30682C151.624 6.30682 153.033 6.65341 154.289 7.34659C155.55 8.03977 156.55 9.05398 157.289 10.3892C158.028 11.7244 158.397 13.3523 158.397 15.2727ZM154.085 15.2727C154.085 14.1364 153.923 13.1761 153.599 12.392C153.281 11.608 152.82 11.0142 152.218 10.6108C151.621 10.2074 150.903 10.0057 150.062 10.0057C149.227 10.0057 148.508 10.2074 147.906 10.6108C147.303 11.0142 146.84 11.608 146.516 12.392C146.198 13.1761 146.039 14.1364 146.039 15.2727C146.039 16.4091 146.198 17.3693 146.516 18.1534C146.84 18.9375 147.303 19.5312 147.906 19.9347C148.508 20.3381 149.227 20.5398 150.062 20.5398C150.903 20.5398 151.621 20.3381 152.218 19.9347C152.82 19.5312 153.281 18.9375 153.599 18.1534C153.923 17.3693 154.085 16.4091 154.085 15.2727ZM167.312 24H160.86V6.54545H167.303C169.082 6.54545 170.613 6.89489 171.897 7.59375C173.187 8.28693 174.181 9.28693 174.88 10.5938C175.579 11.8949 175.928 13.4517 175.928 15.2642C175.928 17.0824 175.579 18.6449 174.88 19.9517C174.187 21.2585 173.195 22.2614 171.906 22.9602C170.616 23.6534 169.085 24 167.312 24ZM165.079 20.4034H167.15C168.127 20.4034 168.954 20.2386 169.63 19.9091C170.312 19.5739 170.826 19.0312 171.173 18.2812C171.525 17.5256 171.701 16.5199 171.701 15.2642C171.701 14.0085 171.525 13.0085 171.173 12.2642C170.82 11.5142 170.3 10.9744 169.613 10.6449C168.931 10.3097 168.09 10.142 167.09 10.142H165.079V20.4034ZM178.391 24V6.54545H190.562V9.97159H182.61V13.5511H189.94V16.9858H182.61V20.5739H190.562V24H178.391ZM193.204 24V6.54545H200.414C201.721 6.54545 202.849 6.78125 203.798 7.25284C204.752 7.71875 205.488 8.3892 206.005 9.2642C206.522 10.1335 206.781 11.1648 206.781 12.358C206.781 13.5682 206.516 14.5966 205.988 15.4432C205.46 16.2841 204.71 16.9261 203.738 17.3693C202.766 17.8068 201.616 18.0256 200.286 18.0256H195.727V14.7017H199.502C200.138 14.7017 200.67 14.6193 201.096 14.4545C201.528 14.2841 201.854 14.0284 202.076 13.6875C202.298 13.3409 202.408 12.8977 202.408 12.358C202.408 11.8182 202.298 11.3722 202.076 11.0199C201.854 10.6619 201.528 10.3949 201.096 10.2188C200.664 10.0369 200.133 9.94602 199.502 9.94602H197.423V24H193.204ZM203.031 16.0227L207.377 24H202.775L198.513 16.0227H203.031Z" fill="#764AF1"/>
</svg>
