<svg width="70" height="22" viewBox="0 0 70 22" fill="none" xmlns="http://www.w3.org/2000/svg">
<path d="M16.6157 0C13.8821 0 11.2604 0.88737 9.32739 2.4669L3.01893 7.62183C1.08594 9.20135 0 11.3436 0 13.5774C0 18.2291 4.61473 22 10.3073 22C13.041 22 15.6627 21.1126 17.5956 19.5331L21.9592 15.9674C21.9593 15.9675 21.9592 15.9673 21.9592 15.9674L34.6733 5.57817C35.5965 4.8238 36.8486 4.4 38.1542 4.4C40.3399 4.4 42.1931 5.5641 42.8355 7.17498L46.848 3.89617C45.0176 1.55345 41.8079 0 38.1542 0C35.4205 0 32.7988 0.88737 30.8658 2.4669L13.7882 16.4218C12.865 17.1762 11.6129 17.6 10.3073 17.6C7.58856 17.6 5.38461 15.7991 5.38461 13.5774C5.38461 12.5106 5.90324 11.4874 6.82642 10.7331L13.1348 5.57817C14.058 4.8238 15.3101 4.4 16.6157 4.4C18.8016 4.4 20.6546 5.56415 21.2971 7.17509L25.3097 3.89625C23.4792 1.55349 20.2695 0 16.6157 0Z" fill="#764AF1"/>
<path d="M35.3268 16.4218C34.4036 17.1762 33.1515 17.6 31.8459 17.6C29.6604 17.6 27.8074 16.4362 27.1648 14.8256L23.1523 18.1043C24.9829 20.4467 28.1924 22 31.8459 22C34.5796 22 37.2012 21.1126 39.1342 19.5331L56.2118 5.57817C57.135 4.8238 58.3871 4.4 59.6927 4.4C62.4115 4.4 64.6154 6.20095 64.6154 8.42255C64.6154 9.48941 64.0968 10.5126 63.1736 11.2669L56.8652 16.4218C55.942 17.1762 54.6899 17.6 53.3843 17.6C51.1986 17.6 49.3456 16.436 48.703 14.8252L44.6906 18.104C46.5211 20.4467 49.7307 22 53.3843 22C56.118 22 58.7397 21.1126 60.6726 19.5331L66.9811 14.3782C68.914 12.7986 70 10.6564 70 8.42255C70 3.7709 65.3853 0 59.6927 0C56.9591 0 54.3374 0.88737 52.4044 2.4669L35.3268 16.4218Z" fill="#764AF1"/>
</svg>
